<?xml version="1.0" encoding="UTF-8" standalone="no"?>
<!DOCTYPE svg PUBLIC "-//W3C//DTD SVG 1.1//EN" "http://www.w3.org/Graphics/SVG/1.1/DTD/svg11.dtd">
<svg version="1.1" xmlns="http://www.w3.org/2000/svg" xmlns:xlink="http://www.w3.org/1999/xlink" preserveAspectRatio="xMidYMid meet" viewBox="0 0 640 640" width="640" height="640"><defs><path d="M149.19 59.1L152.32 59.4L155.42 59.82L158.48 60.35L161.5 60.99L164.48 61.75L167.41 62.61L170.29 63.58L173.13 64.65L175.91 65.82L178.64 67.09L181.31 68.46L183.93 69.92L186.49 71.48L188.98 73.12L191.41 74.85L193.78 76.67L196.07 78.56L198.3 80.54L200.45 82.6L202.53 84.74L204.53 86.94L206.45 89.22L208.29 91.57L210.04 93.99L211.71 96.47L213.3 99.01L214.79 101.61L216.19 104.28L217.49 106.99L218.7 109.76L219.81 112.59L220.82 115.46L221.73 118.38L222.53 121.34L223.23 124.34L223.81 127.39L224.29 130.47L224.65 133.59L566.8 133.59L567.63 133.61L568.45 133.66L569.26 133.74L570.07 133.85L570.86 134L571.64 134.18L572.41 134.38L573.17 134.62L573.92 134.88L574.65 135.18L575.37 135.5L576.07 135.84L576.76 136.22L577.43 136.62L578.08 137.04L578.72 137.49L579.33 137.96L579.93 138.45L580.51 138.97L581.07 139.51L581.61 140.07L582.13 140.64L582.62 141.24L583.09 141.86L583.54 142.5L583.97 143.15L584.37 143.82L584.74 144.51L585.09 145.21L585.41 145.93L585.7 146.66L585.97 147.41L586.2 148.17L586.41 148.94L586.59 149.72L586.73 150.51L586.85 151.32L586.93 152.13L586.98 152.96L587 153.79L587 480.95L586.98 481.78L586.93 482.61L586.85 483.42L586.73 484.23L586.59 485.02L586.41 485.81L586.2 486.58L585.97 487.34L585.7 488.09L585.41 488.82L585.09 489.54L584.74 490.24L584.37 490.93L583.97 491.6L583.54 492.25L583.09 492.89L582.62 493.5L582.13 494.1L581.61 494.68L581.07 495.24L580.51 495.78L579.93 496.29L579.33 496.79L578.72 497.26L578.08 497.7L577.43 498.13L576.76 498.53L576.07 498.9L575.37 499.24L574.65 499.56L573.92 499.86L573.17 500.12L572.41 500.36L571.64 500.56L570.86 500.74L570.07 500.88L569.26 501L568.45 501.08L567.63 501.13L566.8 501.15L134.39 501.15L133.55 501.13L132.73 501.08L131.91 501L131.11 500.88L130.32 500.74L129.53 500.56L128.76 500.35L128 500.12L127.26 499.85L126.52 499.56L125.81 499.24L125.1 498.89L124.42 498.52L123.75 498.12L123.09 497.7L122.46 497.25L121.84 496.78L121.24 496.28L120.66 495.77L120.1 495.23L119.56 494.67L119.05 494.09L118.55 493.49L118.08 492.88L117.63 492.24L117.21 491.59L116.81 490.92L116.44 490.23L116.09 489.53L115.77 488.81L115.48 488.08L115.21 487.33L114.98 486.57L114.77 485.8L114.59 485.02L114.45 484.22L114.33 483.42L114.25 482.6L114.2 481.78L114.18 480.95L114.18 298.89L113.91 299.14L113.63 299.38L113.34 299.61L113.05 299.84L112.76 300.06L112.46 300.28L112.16 300.49L111.86 300.7L111.55 300.9L111.24 301.09L110.93 301.28L110.61 301.46L110.29 301.64L109.97 301.81L109.64 301.98L109.31 302.14L108.98 302.29L108.65 302.44L108.31 302.58L107.97 302.71L107.62 302.84L107.28 302.96L106.93 303.08L106.58 303.19L106.23 303.29L105.87 303.39L105.52 303.48L105.16 303.56L104.8 303.64L104.44 303.71L104.07 303.78L103.71 303.83L103.34 303.88L102.98 303.93L102.61 303.97L102.23 304L101.86 304.02L101.49 304.04L101.12 304.05L100.74 304.05L100.67 304.05L100.61 304.05L100.54 304.05L100.47 304.05L100.41 304.05L100.34 304.05L100.27 304.05L100.21 304.05L100.14 304.04L100.07 304.04L100.01 304.04L99.94 304.04L99.87 304.04L99.81 304.03L99.74 304.03L99.67 304.03L99.6 304.02L99.54 304.02L99.47 304.02L99.4 304.01L99.34 304.01L99.27 304.01L99.2 304L99.13 304L99.07 303.99L99 303.99L98.93 303.98L98.86 303.98L98.8 303.97L98.73 303.97L98.66 303.96L98.59 303.95L98.53 303.95L98.46 303.94L98.39 303.94L98.32 303.93L98.25 303.92L98.18 303.91L98.12 303.91L98.05 303.9L97.47 303.81L96.9 303.71L96.33 303.59L95.77 303.45L95.22 303.3L94.67 303.14L94.13 302.95L93.59 302.76L93.06 302.55L92.54 302.32L92.02 302.09L91.52 301.83L91.02 301.57L90.53 301.29L90.05 301L89.57 300.69L89.11 300.37L88.66 300.04L88.21 299.7L87.77 299.34L87.35 298.97L86.93 298.59L86.53 298.2L86.13 297.8L85.75 297.39L85.38 296.96L85.02 296.53L84.67 296.08L84.33 295.63L84.01 295.16L83.7 294.69L83.4 294.2L83.11 293.71L82.84 293.2L82.58 292.69L82.34 292.17L82.11 291.64L81.89 291.1L81.69 290.55L81.5 290L73.45 264.79L47.1 267.61L46.51 267.67L45.93 267.71L45.35 267.73L44.77 267.74L44.2 267.73L43.62 267.7L43.05 267.66L42.48 267.6L41.92 267.52L41.36 267.43L40.8 267.32L40.25 267.2L39.7 267.06L39.15 266.91L38.62 266.74L38.08 266.55L37.56 266.35L37.03 266.14L36.52 265.91L36.01 265.67L35.51 265.41L35.01 265.14L34.53 264.86L34.05 264.56L33.58 264.25L33.12 263.92L32.66 263.58L32.22 263.23L31.78 262.87L31.36 262.49L30.94 262.11L30.54 261.71L30.14 261.29L29.76 260.87L29.39 260.43L29.03 259.98L28.68 259.53L28.34 259.06L28.02 258.57L27.71 258.08L27.41 257.58L27.13 257.07L26.86 256.56L26.61 256.04L26.38 255.52L26.16 254.99L25.96 254.46L25.77 253.92L25.6 253.38L25.44 252.83L25.3 252.28L25.18 251.73L25.07 251.18L24.97 250.62L24.9 250.06L24.84 249.5L24.79 248.94L24.76 248.38L24.74 247.82L24.74 247.26L24.76 246.69L24.79 246.13L24.84 245.57L24.9 245.01L24.98 244.45L25.07 243.9L25.18 243.35L25.31 242.79L25.45 242.25L25.6 241.7L25.77 241.16L25.96 240.62L26.16 240.09L26.38 239.56L26.61 239.04L26.86 238.52L27.13 238.01L27.41 237.5L27.7 237L28.01 236.51L67.73 175.52L67.38 174.74L67.03 173.95L66.69 173.16L66.36 172.36L66.04 171.56L65.73 170.76L65.42 169.95L65.12 169.14L64.83 168.33L64.55 167.51L64.27 166.69L64 165.87L63.75 165.04L63.5 164.21L63.25 163.37L63.02 162.54L62.8 161.7L62.58 160.85L62.37 160L62.17 159.15L61.99 158.29L61.8 157.44L61.63 156.58L61.47 155.71L61.32 154.84L61.17 153.97L61.04 153.1L60.92 152.22L60.8 151.34L60.69 150.46L60.6 149.57L60.51 148.68L60.44 147.79L60.37 146.89L60.31 146L60.27 145.1L60.23 144.19L60.2 143.29L60.19 142.38L60.18 141.47L60.25 138.07L60.46 134.7L60.8 131.37L61.27 128.08L61.87 124.83L62.59 121.63L63.44 118.48L64.4 115.38L65.49 112.33L66.69 109.34L68 106.4L69.42 103.53L70.95 100.72L72.58 97.98L74.32 95.3L76.15 92.7L78.08 90.18L80.1 87.73L82.22 85.36L84.42 83.07L86.7 80.87L89.07 78.76L91.52 76.74L94.05 74.81L96.65 72.98L99.33 71.24L102.07 69.61L104.88 68.08L107.75 66.66L110.69 65.35L113.68 64.15L116.73 63.07L119.84 62.1L122.99 61.26L126.19 60.53L129.44 59.93L132.73 59.46L136.06 59.13L139.42 58.92L142.82 58.85L146.02 58.91L149.19 59.1ZM266.78 236.51L267.09 237L267.39 237.5L267.67 238.01L267.93 238.52L268.18 239.04L268.41 239.56L268.63 240.09L268.83 240.62L269.02 241.16L269.19 241.7L269.35 242.25L269.49 242.79L269.61 243.35L269.72 243.9L269.82 244.45L269.89 245.01L269.96 245.57L270 246.13L270.03 246.69L270.05 247.26L270.05 247.82L270.03 248.38L270 248.94L269.95 249.5L269.89 250.06L269.81 250.62L269.72 251.18L269.61 251.73L269.48 252.28L269.34 252.83L269.18 253.38L269.01 253.92L268.82 254.46L268.62 254.99L268.4 255.52L268.16 256.04L267.91 256.56L267.64 257.07L267.36 257.58L267.06 258.08L266.75 258.58L266.43 259.06L266.09 259.53L265.74 259.99L265.38 260.44L265.01 260.88L264.63 261.3L264.23 261.72L263.83 262.12L263.42 262.51L262.99 262.88L262.56 263.24L262.11 263.6L261.66 263.93L261.2 264.26L260.73 264.57L260.25 264.87L259.77 265.15L259.27 265.42L258.77 265.68L258.26 265.92L257.75 266.15L257.23 266.36L256.7 266.56L256.17 266.74L255.63 266.91L255.09 267.07L254.54 267.2L253.99 267.33L253.43 267.43L252.87 267.53L252.31 267.6L251.74 267.66L251.17 267.7L250.6 267.73L250.02 267.74L249.44 267.73L248.86 267.71L248.28 267.67L247.7 267.61L221.35 264.79L213.29 290.03L213.11 290.58L212.91 291.13L212.69 291.66L212.46 292.19L212.22 292.72L211.96 293.23L211.69 293.73L211.4 294.22L211.11 294.71L210.8 295.18L210.47 295.65L210.14 296.1L209.79 296.55L209.43 296.98L209.05 297.41L208.67 297.82L208.28 298.22L207.87 298.61L207.46 298.99L207.03 299.35L206.59 299.71L206.15 300.05L205.69 300.38L205.23 300.7L204.75 301L204.27 301.3L203.78 301.57L203.28 301.84L202.77 302.09L202.26 302.33L201.74 302.55L201.21 302.76L200.67 302.96L200.13 303.14L199.58 303.3L199.02 303.45L198.46 303.59L197.9 303.71L197.32 303.81L196.75 303.9L196.68 303.91L196.61 303.92L196.55 303.93L196.48 303.94L196.41 303.94L196.35 303.95L196.28 303.96L196.21 303.96L196.14 303.97L196.08 303.98L196.01 303.98L195.94 303.99L195.87 303.99L195.81 304L195.74 304L195.67 304.01L195.6 304.01L195.54 304.02L195.47 304.02L195.4 304.02L195.33 304.03L195.27 304.03L195.2 304.03L195.13 304.04L195.06 304.04L194.99 304.04L194.93 304.04L194.86 304.04L194.79 304.05L194.72 304.05L194.66 304.05L194.59 304.05L194.52 304.05L194.46 304.05L194.39 304.05L194.32 304.05L194.25 304.05L194.19 304.05L194.12 304.05L194.05 304.05L193.55 304.05L193.04 304.03L192.54 304L192.04 303.95L191.54 303.89L191.04 303.83L190.55 303.75L190.06 303.65L189.57 303.55L189.09 303.43L188.61 303.3L188.13 303.16L187.65 303.01L187.18 302.85L186.72 302.67L186.26 302.48L185.8 302.29L185.35 302.08L184.91 301.86L184.47 301.63L184.03 301.39L183.6 301.14L183.18 300.87L182.76 300.6L182.35 300.32L181.95 300.02L181.56 299.72L181.17 299.4L180.78 299.08L180.41 298.75L180.04 298.4L179.68 298.05L179.33 297.68L178.99 297.31L178.66 296.93L178.33 296.54L178.02 296.14L177.71 295.73L177.42 295.31L177.13 294.88L154.59 260.24L154.59 460.72L546.57 460.72L546.57 173.99L226.07 173.99L266.78 236.51ZM195.01 205.05L194 205.89L192.98 206.71L191.95 207.52L190.9 208.31L189.85 209.09L188.78 209.85L187.7 210.6L186.61 211.33L185.5 212.04L184.39 212.73L183.26 213.41L182.12 214.07L180.96 214.7L179.8 215.32L178.62 215.92L177.42 216.49L176.22 217.05L174.99 217.58L187.78 237.19L187.9 236.79L188.39 235.44L188.96 234.15L189.61 232.91L190.34 231.73L191.14 230.6L192.01 229.55L192.95 228.56L193.95 227.63L195.01 226.78L196.12 226L197.29 225.3L198.49 224.68L199.74 224.14L201.03 223.68L202.35 223.31L203.7 223.03L205.07 222.84L206.47 222.75L207.88 222.76L209.3 222.86L209.73 222.89L197 203.34L196.01 204.2L195.01 205.05ZM85.52 222.86L86.58 222.79L87.67 222.83L88.76 222.96L89.87 223.19L90.99 223.52L92.13 223.95L93.28 224.47L94.45 225.1L95.63 225.82L96.83 226.64L98.04 227.57L99.26 228.59L100.5 229.71L101.76 230.93L103.02 232.24L104.31 233.66L105.6 235.17L106.92 236.79L107.07 237.17L118.27 219.94L116.85 219.48L115.44 219.01L114.04 218.51L112.65 217.98L111.27 217.44L109.91 216.88L108.56 216.29L107.22 215.67L105.89 215.04L104.58 214.38L103.28 213.7L101.99 213L100.72 212.27L99.46 211.52L98.22 210.74L97 209.95L95.79 209.12L94.59 208.27L85.06 222.91L85.52 222.86ZM139.36 99.37L137.66 99.55L135.98 99.79L134.32 100.09L132.68 100.46L131.07 100.89L129.48 101.39L127.92 101.94L126.39 102.56L124.89 103.23L123.42 103.95L121.99 104.74L120.59 105.57L119.22 106.46L117.89 107.39L116.6 108.38L115.35 109.41L114.14 110.49L112.97 111.62L111.84 112.79L110.76 114L109.73 115.25L108.74 116.54L107.81 117.87L106.92 119.24L106.09 120.64L105.31 122.08L104.58 123.55L103.91 125.05L103.3 126.58L102.74 128.14L102.25 129.72L101.82 131.33L101.45 132.97L101.14 134.63L100.9 136.31L100.73 138.01L100.62 139.73L100.59 141.47L100.62 143.2L100.73 144.92L100.9 146.62L101.14 148.31L101.45 149.96L101.82 151.6L102.25 153.21L102.74 154.8L103.3 156.36L103.91 157.89L104.58 159.39L105.31 160.85L106.09 162.29L106.92 163.69L107.81 165.06L108.74 166.39L109.73 167.68L110.76 168.93L111.84 170.14L112.97 171.31L114.14 172.44L115.35 173.52L116.6 174.55L117.89 175.54L119.22 176.48L120.59 177.36L121.99 178.2L123.42 178.98L124.89 179.7L126.39 180.38L127.92 180.99L129.48 181.54L131.07 182.04L132.68 182.47L134.32 182.84L135.98 183.15L137.66 183.39L139.36 183.56L141.08 183.67L142.82 183.7L144.56 183.67L146.28 183.56L147.99 183.39L149.67 183.15L151.33 182.84L152.97 182.47L154.58 182.04L156.17 181.54L157.73 180.99L159.26 180.38L160.76 179.7L162.23 178.98L163.66 178.2L165.07 177.36L166.43 176.48L167.77 175.54L169.06 174.55L170.31 173.52L171.52 172.44L172.69 171.31L173.82 170.14L174.9 168.93L175.93 167.68L176.92 166.39L177.86 165.06L178.74 163.69L179.58 162.29L180.36 160.85L181.09 159.39L181.76 157.89L182.37 156.36L182.93 154.8L183.42 153.21L183.85 151.6L184.22 149.96L184.53 148.31L184.77 146.62L184.94 144.92L185.05 143.2L185.08 141.47L185.05 139.73L184.94 138.01L184.77 136.31L184.53 134.63L184.22 132.97L183.85 131.33L183.42 129.72L182.93 128.14L182.37 126.58L181.76 125.05L181.09 123.55L180.36 122.08L179.58 120.64L178.74 119.24L177.86 117.87L176.92 116.54L175.93 115.25L174.9 114L173.82 112.79L172.69 111.62L171.52 110.49L170.31 109.41L169.06 108.38L167.77 107.39L166.43 106.46L165.07 105.57L163.66 104.74L162.23 103.95L160.76 103.23L159.26 102.56L157.73 101.94L156.17 101.39L154.58 100.89L152.97 100.46L151.33 100.09L149.67 99.79L147.99 99.55L146.28 99.37L144.56 99.27L142.82 99.23L141.08 99.27L139.36 99.37Z" id="e7dETE87E"></path><path d="M352.72 223.42L355.15 223.66L357.55 224.01L359.92 224.44L362.26 224.97L364.57 225.59L366.83 226.3L369.06 227.09L371.25 227.97L373.39 228.92L375.49 229.96L377.55 231.08L379.55 232.27L381.5 233.54L383.41 234.87L385.25 236.28L387.04 237.76L388.77 239.3L390.44 240.91L392.05 242.58L393.6 244.31L395.07 246.1L396.48 247.94L397.82 249.84L399.09 251.8L400.28 253.8L401.4 255.85L402.44 257.95L403.4 260.1L404.27 262.28L405.07 264.51L405.77 266.78L406.39 269.08L406.92 271.42L407.36 273.79L407.7 276.19L407.95 278.63L408.1 281.09L408.15 283.57L408.1 286.06L407.95 288.52L407.7 290.95L407.36 293.36L406.92 295.73L406.39 298.07L405.77 300.38L405.07 302.65L404.27 304.87L403.4 307.06L402.44 309.21L401.4 311.31L400.28 313.36L399.09 315.37L397.82 317.32L396.48 319.22L395.07 321.07L393.6 322.86L392.05 324.59L390.44 326.27L388.77 327.87L387.04 329.42L385.25 330.9L383.41 332.31L381.5 333.65L379.55 334.91L377.55 336.11L375.49 337.22L373.39 338.26L371.25 339.22L369.06 340.1L366.83 340.89L364.57 341.6L362.26 342.22L359.92 342.75L357.55 343.18L355.15 343.53L352.72 343.77L350.26 343.92L347.77 343.97L345.28 343.92L342.82 343.77L340.39 343.53L337.98 343.18L335.61 342.74L333.27 342.22L330.97 341.6L328.7 340.89L326.47 340.1L324.28 339.22L322.14 338.26L320.04 337.22L317.98 336.1L315.98 334.91L314.03 333.64L312.13 332.3L310.28 330.89L308.49 329.41L306.76 327.87L305.09 326.26L303.48 324.58L301.94 322.85L300.46 321.06L299.05 319.21L297.71 317.31L296.45 315.36L295.25 313.35L294.14 311.3L293.1 309.2L292.14 307.05L291.27 304.86L290.47 302.64L289.77 300.37L289.15 298.06L288.62 295.72L288.18 293.35L287.84 290.95L287.59 288.51L287.44 286.06L287.39 283.57L287.44 281.09L287.59 278.63L287.84 276.2L288.18 273.8L288.62 271.43L289.15 269.09L289.77 266.79L290.47 264.52L291.27 262.29L292.14 260.11L293.1 257.96L294.14 255.86L295.25 253.81L296.45 251.81L297.71 249.86L299.05 247.96L300.46 246.11L301.94 244.32L303.48 242.59L305.09 240.92L306.76 239.31L308.49 237.77L310.28 236.29L312.13 234.88L314.03 233.54L315.98 232.28L317.98 231.08L320.04 229.97L322.14 228.93L324.28 227.97L326.47 227.09L328.7 226.3L330.97 225.59L333.27 224.97L335.61 224.45L337.98 224.01L340.39 223.67L342.82 223.42L345.28 223.27L347.77 223.22L350.26 223.27L352.72 223.42ZM345.17 263.74L343.9 263.95L342.67 264.23L341.46 264.59L340.29 265.03L339.15 265.53L338.05 266.1L336.99 266.74L335.98 267.43L335.01 268.19L334.09 269L333.22 269.87L332.41 270.79L331.65 271.76L330.95 272.78L330.32 273.83L329.75 274.93L329.25 276.07L328.82 277.24L328.46 278.45L328.17 279.68L327.97 280.95L327.84 282.23L327.8 283.54L327.84 284.86L327.97 286.15L328.17 287.42L328.46 288.66L328.82 289.87L329.25 291.05L329.75 292.19L330.33 293.29L330.96 294.35L331.66 295.37L332.42 296.34L333.23 297.26L334.1 298.13L335.02 298.95L335.99 299.7L337 300.4L338.06 301.04L339.16 301.61L340.3 302.11L341.47 302.55L342.67 302.91L343.91 303.19L345.17 303.4L346.46 303.53L347.77 303.57L349.08 303.53L350.37 303.4L351.63 303.19L352.87 302.91L354.07 302.55L355.25 302.11L356.38 301.61L357.48 301.04L358.54 300.4L359.56 299.7L360.52 298.95L361.44 298.13L362.31 297.26L363.13 296.34L363.88 295.37L364.58 294.35L365.22 293.29L365.79 292.19L366.29 291.05L366.72 289.87L367.08 288.66L367.37 287.42L367.58 286.15L367.7 284.86L367.74 283.54L367.7 282.23L367.58 280.95L367.37 279.68L367.09 278.45L366.73 277.24L366.29 276.07L365.79 274.93L365.22 273.83L364.59 272.78L363.89 271.76L363.13 270.79L362.32 269.87L361.45 269L360.53 268.19L359.57 267.43L358.55 266.74L357.49 266.1L356.39 265.53L355.26 265.03L354.08 264.59L352.88 264.23L351.64 263.95L350.37 263.74L349.08 263.61L347.77 263.57L346.46 263.61L345.17 263.74Z" id="beQlVLM2l"></path><path d="M241.93 411.7C263.09 411.7 432.4 411.7 453.56 411.7C464.69 411.7 473.76 402.68 473.76 391.5C473.76 380.36 464.72 371.32 453.56 371.32C432.4 371.32 263.12 371.32 241.96 371.32C230.8 371.32 221.75 380.34 221.75 391.5C221.75 402.65 230.77 411.7 241.93 411.7Z" id="d6E0RKwWHJ"></path></defs><g><g><g><use xlink:href="#e7dETE87E" opacity="1" fill="#000000" fill-opacity="1"></use><g><use xlink:href="#e7dETE87E" opacity="1" fill-opacity="0" stroke="#000000" stroke-width="1" stroke-opacity="0"></use></g></g><g><use xlink:href="#beQlVLM2l" opacity="1" fill="#000000" fill-opacity="1"></use><g><use xlink:href="#beQlVLM2l" opacity="1" fill-opacity="0" stroke="#000000" stroke-width="1" stroke-opacity="0"></use></g></g><g><use xlink:href="#d6E0RKwWHJ" opacity="1" fill="#000000" fill-opacity="1"></use><g><use xlink:href="#d6E0RKwWHJ" opacity="1" fill-opacity="0" stroke="#000000" stroke-width="1" stroke-opacity="0"></use></g></g></g></g></svg>