<svg xmlns:dc="http://purl.org/dc/elements/1.1/" xmlns:cc="http://creativecommons.org/ns#" xmlns:rdf="http://www.w3.org/1999/02/22-rdf-syntax-ns#" xmlns:svg="http://www.w3.org/2000/svg" xmlns="http://www.w3.org/2000/svg" xmlns:sodipodi="http://sodipodi.sourceforge.net/DTD/sodipodi-0.dtd" xmlns:inkscape="http://www.inkscape.org/namespaces/inkscape" version="1.1" x="0px" y="0px" viewBox="0 0 100 125"><g transform="translate(0,-952.36218)"><path style="color:#000000;enable-background:accumulate;" d="m 50,977.36218 -45,17 45,17.00002 45,-17.00002 -45,-17 z m -40,21 0,8.43752 c 0.6156,-0.2709 1.2843,-0.4375 2,-0.4375 0.7157,0 1.3844,0.1666 2,0.4375 l 0,-6.93752 -4,-1.5 z m 12,4.53122 0,14.4688 c 0,4.1862 12.488,10 28,10 15.512,0 28,-5.8138 28,-10 l 0,-14.4688 -27.2812,10.3126 a 2.0001996,2.0001996 0 0 1 -1.4376,0 L 22,1002.8934 z m -10,5.4688 c -1.6568,0 -3,1.3431 -3,3 0,1.6569 1.3432,3 3,3 1.6568,0 3,-1.3431 3,-3 0,-1.6569 -1.3432,-3 -3,-3 z" fill="#000000" stroke="none" marker="none" visibility="visible" display="inline" overflow="visible"/></g><text x="0" y="115" fill="#000000" font-size="5px" font-weight="bold" font-family="'Helvetica Neue', Helvetica, Arial-Unicode, Arial, Sans-serif">Created by Rockicon</text><text x="0" y="120" fill="#000000" font-size="5px" font-weight="bold" font-family="'Helvetica Neue', Helvetica, Arial-Unicode, Arial, Sans-serif">from the Noun Project</text></svg>