<?xml version="1.0" encoding="UTF-8" standalone="no"?>
<!DOCTYPE svg PUBLIC "-//W3C//DTD SVG 1.1//EN" "http://www.w3.org/Graphics/SVG/1.1/DTD/svg11.dtd">
<svg version="1.1" xmlns="http://www.w3.org/2000/svg" xmlns:xlink="http://www.w3.org/1999/xlink" preserveAspectRatio="xMidYMid meet" viewBox="0 0 640 640" width="640" height="640"><defs><path d="M52.54 502.11L99.8 502.11L99.8 100.43L501.46 100.43L501.46 53.19L52.54 53.19L52.54 502.11" id="cST5EbefE"></path><path d="M560.68 594.75C560.68 594.75 560.68 594.75 560.68 594.75C311.11 345.18 172.46 206.53 144.73 178.8C144.73 178.8 144.73 178.8 144.73 178.8C164.79 158.74 175.93 147.6 178.16 145.38C178.16 145.38 178.16 145.38 178.16 145.38C427.73 394.94 566.37 533.59 594.1 561.32C594.1 561.32 594.1 561.32 594.1 561.32C574.05 581.38 562.91 592.52 560.68 594.75Z" id="b54YHRrPJx"></path></defs><g><g><g><use xlink:href="#cST5EbefE" opacity="1" fill="#000000" fill-opacity="1"></use><g><use xlink:href="#cST5EbefE" opacity="1" fill-opacity="0" stroke="#000000" stroke-width="1" stroke-opacity="0"></use></g></g><g><use xlink:href="#b54YHRrPJx" opacity="1" fill="#000000" fill-opacity="1"></use><g><use xlink:href="#b54YHRrPJx" opacity="1" fill-opacity="0" stroke="#000000" stroke-width="1" stroke-opacity="0"></use></g></g></g></g></svg>