<?xml version="1.0" encoding="UTF-8" standalone="no"?>
<!DOCTYPE svg PUBLIC "-//W3C//DTD SVG 1.1//EN" "http://www.w3.org/Graphics/SVG/1.1/DTD/svg11.dtd">
<svg version="1.1" xmlns="http://www.w3.org/2000/svg" xmlns:xlink="http://www.w3.org/1999/xlink" preserveAspectRatio="xMidYMid meet" viewBox="0 0 640 640" width="640" height="640"><defs><path d="M594.1 502.11L546.84 502.11L546.84 100.43L145.18 100.43L145.18 53.19L594.1 53.19L594.1 502.11" id="a4xco5MAzN"></path><path d="M85.96 594.75C85.96 594.75 85.96 594.75 85.96 594.75C335.53 345.18 474.18 206.53 501.91 178.8C501.91 178.8 501.91 178.8 501.91 178.8C481.85 158.74 470.71 147.6 468.48 145.38C468.48 145.38 468.48 145.38 468.48 145.38C218.92 394.94 80.27 533.59 52.54 561.32C52.54 561.32 52.54 561.32 52.54 561.32C72.59 581.38 83.73 592.52 85.96 594.75Z" id="agsWDFo45"></path></defs><g><g><g><use xlink:href="#a4xco5MAzN" opacity="1" fill="#000000" fill-opacity="1"></use><g><use xlink:href="#a4xco5MAzN" opacity="1" fill-opacity="0" stroke="#000000" stroke-width="1" stroke-opacity="0"></use></g></g><g><use xlink:href="#agsWDFo45" opacity="1" fill="#000000" fill-opacity="1"></use><g><use xlink:href="#agsWDFo45" opacity="1" fill-opacity="0" stroke="#000000" stroke-width="1" stroke-opacity="0"></use></g></g></g></g></svg>