<?xml version="1.0" encoding="UTF-8" standalone="no"?>
<!DOCTYPE svg PUBLIC "-//W3C//DTD SVG 1.1//EN" "http://www.w3.org/Graphics/SVG/1.1/DTD/svg11.dtd">
<svg version="1.1" xmlns="http://www.w3.org/2000/svg" xmlns:xlink="http://www.w3.org/1999/xlink" preserveAspectRatio="xMidYMid meet" viewBox="0 0 640 640" width="640" height="640"><defs><path d="M319.11 348.41C310.43 348.41 303.4 355.45 303.4 364.12C303.4 372.8 310.43 379.83 319.11 379.83C327.78 379.83 334.82 372.8 334.82 364.12C334.82 355.45 327.78 348.41 319.11 348.41Z" id="a1AmAnHlFa"></path><path d="M265.62 348.41C256.94 348.41 249.91 355.45 249.91 364.12C249.91 372.8 256.94 379.83 265.62 379.83C274.29 379.83 281.32 372.8 281.32 364.12C281.32 355.45 274.29 348.41 265.62 348.41Z" id="h3IpNSMYI"></path><path d="M372.6 348.41C363.92 348.41 356.89 355.45 356.89 364.12C356.89 372.8 363.92 379.83 372.6 379.83C381.27 379.83 388.31 372.8 388.31 364.12C388.31 355.45 381.27 348.41 372.6 348.41Z" id="g4bLRKT1sb"></path><path d="M620.13 44.91L620.42 44.94L620.7 44.98L620.98 45.03L621.26 45.1L621.53 45.17L621.8 45.25L622.06 45.35L622.32 45.45L622.58 45.56L622.82 45.68L623.07 45.82L623.3 45.96L623.53 46.11L623.76 46.26L623.98 46.43L624.19 46.61L624.39 46.79L624.59 46.98L624.78 47.17L624.96 47.38L625.14 47.59L625.3 47.81L625.46 48.03L625.61 48.26L625.75 48.5L625.88 48.74L626.01 48.99L626.12 49.24L626.22 49.5L626.32 49.77L626.4 50.03L626.47 50.31L626.53 50.58L626.59 50.86L626.63 51.15L626.66 51.44L626.67 51.73L626.68 52.02L626.68 326.6L626.67 326.9L626.66 327.19L626.63 327.48L626.59 327.76L626.53 328.04L626.47 328.32L626.4 328.59L626.32 328.86L626.22 329.12L626.12 329.38L626.01 329.63L625.88 329.88L625.75 330.12L625.61 330.36L625.46 330.59L625.3 330.82L625.14 331.03L624.96 331.25L624.78 331.45L624.59 331.65L624.39 331.84L624.19 332.02L623.98 332.19L623.76 332.36L623.53 332.52L623.3 332.67L623.07 332.81L622.82 332.94L622.58 333.06L622.32 333.18L622.06 333.28L621.8 333.37L621.53 333.46L621.26 333.53L620.98 333.59L620.7 333.64L620.42 333.68L620.13 333.71L619.84 333.73L619.55 333.74L20.45 333.74L20.16 333.73L19.87 333.71L19.58 333.68L19.3 333.64L19.02 333.59L18.74 333.53L18.47 333.46L18.2 333.37L17.94 333.28L17.68 333.18L17.42 333.06L17.18 332.94L16.93 332.81L16.7 332.67L16.47 332.52L16.24 332.36L16.02 332.19L15.81 332.02L15.61 331.84L15.41 331.65L15.22 331.45L15.04 331.25L14.86 331.03L14.7 330.82L14.54 330.59L14.39 330.36L14.25 330.12L14.12 329.88L13.99 329.63L13.88 329.38L13.78 329.12L13.68 328.86L13.6 328.59L13.53 328.32L13.47 328.04L13.41 327.76L13.37 327.48L13.34 327.19L13.33 326.9L13.32 326.6L13.32 52.02L13.33 51.73L13.34 51.44L13.37 51.15L13.41 50.86L13.47 50.58L13.53 50.31L13.6 50.03L13.68 49.77L13.78 49.5L13.88 49.24L13.99 48.99L14.12 48.74L14.25 48.5L14.39 48.26L14.54 48.03L14.7 47.81L14.86 47.59L15.04 47.38L15.22 47.17L15.41 46.98L15.61 46.79L15.81 46.61L16.02 46.43L16.24 46.26L16.47 46.11L16.7 45.96L16.93 45.82L17.18 45.68L17.42 45.56L17.68 45.45L17.94 45.35L18.2 45.25L18.47 45.17L18.74 45.1L19.02 45.03L19.3 44.98L19.58 44.94L19.87 44.91L20.16 44.89L20.45 44.89L619.55 44.89L619.84 44.89L620.13 44.91ZM552.67 138.32L552.56 138.32L552.46 138.33L552.36 138.34L552.26 138.35L552.15 138.36L552.05 138.38L551.95 138.39L551.85 138.41L551.75 138.43L551.65 138.46L551.55 138.48L551.45 138.51L551.35 138.54L551.25 138.57L551.15 138.6L551.05 138.63L550.96 138.67L550.86 138.71L550.76 138.75L550.67 138.79L550.57 138.83L550.48 138.88L550.38 138.93L550.29 138.98L550.2 139.03L550.11 139.08L550.02 139.14L549.93 139.2L549.84 139.26L549.75 139.32L549.66 139.38L549.58 139.45L549.49 139.51L549.41 139.58L549.33 139.66L549.25 139.73L549.17 139.8L549.09 139.88L548.94 140.04L548.79 140.2L548.65 140.37L548.52 140.54L548.4 140.72L548.29 140.9L548.18 141.08L548.09 141.27L548 141.46L547.91 141.65L547.84 141.85L547.77 142.04L547.71 142.24L547.66 142.44L547.62 142.64L547.58 142.85L547.56 143.05L547.54 143.25L547.53 143.46L547.52 143.66L547.53 143.87L547.54 144.07L547.56 144.28L547.58 144.48L547.62 144.69L547.66 144.89L547.71 145.09L547.77 145.29L547.84 145.48L547.91 145.68L548 145.87L548.09 146.06L548.18 146.24L548.29 146.43L548.4 146.61L548.52 146.78L548.65 146.95L548.79 147.12L548.94 147.29L549.09 147.45L589.43 187.79L547.83 229.4L547.68 229.56L547.53 229.72L547.39 229.89L547.26 230.06L547.14 230.24L547.03 230.42L546.92 230.6L546.83 230.79L546.74 230.98L546.65 231.17L546.58 231.36L546.51 231.56L546.45 231.76L546.4 231.96L546.36 232.16L546.32 232.36L546.3 232.57L546.28 232.77L546.27 232.97L546.26 233.18L546.27 233.39L546.28 233.59L546.3 233.8L546.32 234L546.36 234.2L546.4 234.4L546.45 234.6L546.51 234.8L546.58 235L546.65 235.19L546.74 235.38L546.83 235.57L546.92 235.76L547.03 235.94L547.14 236.12L547.26 236.3L547.39 236.47L547.53 236.64L547.68 236.8L547.83 236.96L547.99 237.11L548.15 237.26L548.32 237.4L548.49 237.53L548.67 237.65L548.85 237.76L549.03 237.87L549.22 237.96L549.41 238.06L549.6 238.14L549.79 238.21L549.99 238.28L550.19 238.34L550.39 238.39L550.59 238.43L550.79 238.47L551 238.49L551.2 238.51L551.4 238.53L551.61 238.53L551.82 238.53L552.02 238.51L552.23 238.49L552.43 238.47L552.63 238.43L552.83 238.39L553.03 238.34L553.23 238.28L553.43 238.21L553.62 238.14L553.81 238.06L554 237.96L554.19 237.87L554.37 237.76L554.55 237.65L554.73 237.53L554.9 237.4L555.07 237.26L555.23 237.11L555.39 236.96L600.78 191.57L600.93 191.41L601.08 191.25L601.21 191.08L601.34 190.91L601.47 190.73L601.58 190.55L601.68 190.37L601.78 190.19L601.87 190L601.95 189.8L602.03 189.61L602.1 189.41L602.15 189.21L602.21 189.01L602.25 188.81L602.28 188.61L602.31 188.41L602.33 188.2L602.34 188L602.35 187.79L602.34 187.59L602.33 187.38L602.31 187.18L602.28 186.97L602.25 186.77L602.21 186.57L602.15 186.37L602.1 186.17L602.03 185.97L601.95 185.78L601.87 185.59L601.78 185.4L601.68 185.21L601.58 185.03L601.47 184.85L601.34 184.67L601.21 184.5L601.08 184.33L600.93 184.17L600.78 184.01L556.65 139.88L556.57 139.8L556.49 139.73L556.41 139.66L556.33 139.58L556.25 139.51L556.16 139.45L556.08 139.38L555.99 139.32L555.9 139.26L555.81 139.2L555.72 139.14L555.63 139.08L555.54 139.03L555.45 138.98L555.36 138.93L555.26 138.88L555.17 138.83L555.07 138.79L554.98 138.75L554.88 138.71L554.79 138.67L554.69 138.63L554.59 138.6L554.49 138.57L554.39 138.54L554.29 138.51L554.19 138.48L554.09 138.46L553.99 138.43L553.89 138.41L553.79 138.39L553.69 138.38L553.59 138.36L553.49 138.35L553.38 138.34L553.28 138.33L553.18 138.32L553.08 138.32L552.97 138.32L552.87 138.31L552.77 138.32L552.67 138.32ZM88.43 138.33L88.22 138.35L88.02 138.38L87.82 138.41L87.62 138.45L87.42 138.5L87.22 138.56L87.02 138.63L86.83 138.7L86.63 138.79L86.45 138.88L86.26 138.98L86.08 139.08L85.9 139.19L85.72 139.32L85.55 139.45L85.38 139.58L85.22 139.73L85.06 139.88L39.67 185.27L39.52 185.43L39.37 185.59L39.23 185.76L39.1 185.93L38.98 186.11L38.87 186.29L38.76 186.47L38.67 186.66L38.58 186.85L38.49 187.04L38.42 187.23L38.35 187.43L38.29 187.63L38.24 187.83L38.2 188.03L38.16 188.23L38.14 188.44L38.12 188.64L38.11 188.85L38.1 189.05L38.11 189.26L38.12 189.46L38.14 189.67L38.16 189.87L38.2 190.07L38.24 190.27L38.29 190.47L38.35 190.67L38.42 190.87L38.49 191.06L38.58 191.26L38.67 191.44L38.76 191.63L38.87 191.81L38.98 191.99L39.1 192.17L39.23 192.34L39.37 192.51L39.52 192.67L39.67 192.83L83.8 236.96L83.88 237.04L83.96 237.11L84.04 237.19L84.12 237.26L84.2 237.33L84.29 237.4L84.37 237.46L84.46 237.52L84.55 237.59L84.64 237.65L84.73 237.7L84.82 237.76L84.91 237.81L85 237.87L85.09 237.92L85.19 237.96L85.28 238.01L85.37 238.05L85.47 238.1L85.57 238.14L85.66 238.17L85.76 238.21L85.86 238.24L85.96 238.28L86.06 238.31L86.16 238.34L86.26 238.36L86.36 238.39L86.46 238.41L86.56 238.43L86.66 238.45L86.76 238.46L86.86 238.48L86.96 238.49L87.07 238.5L87.17 238.51L87.27 238.52L87.37 238.52L87.48 238.53L87.58 238.53L87.68 238.53L87.78 238.52L87.89 238.52L87.99 238.51L88.09 238.5L88.19 238.49L88.29 238.48L88.4 238.46L88.5 238.45L88.6 238.43L88.7 238.41L88.8 238.39L88.9 238.36L89 238.34L89.1 238.31L89.2 238.28L89.3 238.24L89.4 238.21L89.49 238.17L89.59 238.14L89.69 238.1L89.78 238.05L89.88 238.01L89.97 237.96L90.07 237.92L90.16 237.87L90.25 237.81L90.34 237.76L90.43 237.7L90.52 237.65L90.61 237.59L90.7 237.52L90.78 237.46L90.87 237.4L90.95 237.33L91.04 237.26L91.12 237.19L91.2 237.11L91.28 237.04L91.36 236.96L91.46 236.85L91.56 236.74L91.65 236.63L91.74 236.51L91.82 236.39L91.89 236.26L91.96 236.13L92.03 235.99L92.09 235.85L92.14 235.7L92.19 235.56L92.24 235.4L92.28 235.25L92.31 235.08L92.34 234.92L92.36 234.75L92.38 234.57L92.39 234.39L92.4 234.21L92.41 234.03L92.4 233.83L92.39 233.64L92.38 233.44L92.36 233.24L92.34 233.03L92.31 232.81L92.28 232.6L92.24 232.38L92.19 232.15L92.14 231.92L92.09 231.69L92.03 231.45L91.96 231.21L91.89 230.96L91.82 230.71L91.74 230.46L91.65 230.2L91.56 229.94L91.46 229.67L91.36 229.4L51.02 189.05L92.62 147.44L92.77 147.28L92.92 147.12L93.06 146.95L93.19 146.78L93.31 146.6L93.42 146.43L93.53 146.24L93.62 146.06L93.71 145.87L93.8 145.67L93.87 145.48L93.94 145.28L94 145.09L94.05 144.89L94.09 144.68L94.13 144.48L94.15 144.28L94.17 144.07L94.18 143.87L94.19 143.66L94.18 143.46L94.17 143.25L94.15 143.05L94.13 142.84L94.09 142.64L94.05 142.44L94 142.24L93.94 142.04L93.87 141.84L93.8 141.65L93.71 141.46L93.62 141.27L93.53 141.08L93.42 140.9L93.31 140.72L93.19 140.54L93.06 140.37L92.92 140.2L92.77 140.04L92.62 139.88L92.46 139.73L92.3 139.58L92.13 139.45L91.96 139.32L91.78 139.19L91.6 139.08L91.42 138.98L91.23 138.88L91.04 138.79L90.85 138.7L90.66 138.63L90.46 138.56L90.26 138.5L90.06 138.45L89.86 138.41L89.66 138.38L89.45 138.35L89.25 138.33L89.04 138.32L88.84 138.31L88.63 138.32L88.43 138.33Z" id="glcjG4X4B"></path><path d="M201.12 426.48L201.41 426.51L201.69 426.55L201.98 426.6L202.25 426.66L202.52 426.73L202.79 426.82L203.06 426.91L203.31 427.01L203.57 427.13L203.82 427.25L204.06 427.38L204.29 427.52L204.53 427.67L204.75 427.83L204.97 428L205.18 428.17L205.38 428.35L205.58 428.54L205.77 428.74L205.95 428.94L206.13 429.16L206.29 429.37L206.45 429.6L206.6 429.83L206.74 430.07L206.87 430.31L207 430.56L207.11 430.81L207.21 431.07L207.31 431.33L207.39 431.6L207.46 431.87L207.53 432.15L207.58 432.43L207.62 432.71L207.65 433L207.66 433.29L207.67 433.59L207.67 578.01L207.66 578.3L207.65 578.59L207.62 578.88L207.58 579.17L207.53 579.45L207.46 579.72L207.39 580L207.31 580.26L207.21 580.53L207.11 580.79L207 581.04L206.87 581.29L206.74 581.53L206.6 581.77L206.45 582L206.29 582.22L206.13 582.44L205.95 582.65L205.77 582.86L205.58 583.05L205.38 583.24L205.18 583.43L204.97 583.6L204.75 583.77L204.53 583.92L204.29 584.07L204.06 584.21L203.82 584.35L203.57 584.47L203.31 584.58L203.06 584.68L202.79 584.78L202.52 584.86L202.25 584.93L201.98 585L201.69 585.05L201.41 585.09L201.12 585.12L200.83 585.14L200.54 585.14L22.24 585.14L21.94 585.14L21.65 585.12L21.36 585.09L21.08 585.05L20.8 585L20.52 584.93L20.25 584.86L19.98 584.78L19.72 584.68L19.46 584.58L19.21 584.47L18.96 584.35L18.72 584.21L18.48 584.07L18.25 583.92L18.02 583.77L17.81 583.6L17.59 583.43L17.39 583.24L17.19 583.05L17 582.86L16.82 582.65L16.65 582.44L16.48 582.22L16.32 582L16.17 581.77L16.03 581.53L15.9 581.29L15.78 581.04L15.66 580.79L15.56 580.53L15.47 580.26L15.38 580L15.31 579.72L15.25 579.45L15.2 579.17L15.16 578.88L15.13 578.59L15.11 578.3L15.1 578.01L15.1 433.59L15.11 433.29L15.13 433L15.16 432.71L15.2 432.43L15.25 432.15L15.31 431.87L15.38 431.6L15.47 431.33L15.56 431.07L15.66 430.81L15.78 430.56L15.9 430.31L16.03 430.07L16.17 429.83L16.32 429.6L16.48 429.37L16.65 429.16L16.82 428.94L17 428.74L17.19 428.54L17.39 428.35L17.59 428.17L17.81 428L18.02 427.83L18.25 427.67L18.48 427.52L18.72 427.38L18.96 427.25L19.21 427.13L19.46 427.01L19.72 426.91L19.98 426.82L20.25 426.73L20.52 426.66L20.8 426.6L21.08 426.55L21.36 426.51L21.65 426.48L21.94 426.46L22.24 426.45L200.54 426.45L200.83 426.46L201.12 426.48ZM29.37 570.88L193.41 570.88L193.41 440.72L29.37 440.72L29.37 570.88Z" id="f2qgw0JiDt"></path><path d="M86.42 467.46C86.42 467.46 86.42 467.46 86.42 467.46C86.42 478.16 86.42 484.1 86.42 485.29C86.42 485.29 86.42 485.29 86.42 485.29C61.82 485.29 48.15 485.29 45.42 485.29C45.42 485.29 45.42 485.29 45.42 485.29C45.42 474.6 45.42 468.65 45.42 467.46C45.42 467.46 45.42 467.46 45.42 467.46C70.02 467.46 83.69 467.46 86.42 467.46Z" id="b1v8sUlWcG"></path><path d="M177.36 467.46C177.36 467.46 177.36 467.46 177.36 467.46C177.36 478.16 177.36 484.1 177.36 485.29C177.36 485.29 177.36 485.29 177.36 485.29C132.43 485.29 107.46 485.29 102.47 485.29C102.47 485.29 102.47 485.29 102.47 485.29C102.47 474.6 102.47 468.65 102.47 467.46C102.47 467.46 102.47 467.46 102.47 467.46C147.4 467.46 172.37 467.46 177.36 467.46Z" id="g1xcdFb2s4"></path><path d="M86.42 535.22C86.42 535.22 86.42 535.22 86.42 535.22C86.42 545.92 86.42 551.86 86.42 553.05C86.42 553.05 86.42 553.05 86.42 553.05C61.82 553.05 48.15 553.05 45.42 553.05C45.42 553.05 45.42 553.05 45.42 553.05C45.42 542.35 45.42 536.41 45.42 535.22C45.42 535.22 45.42 535.22 45.42 535.22C70.02 535.22 83.69 535.22 86.42 535.22Z" id="d4ga3YRbb"></path><path d="M177.36 535.22C177.36 535.22 177.36 535.22 177.36 535.22C177.36 545.92 177.36 551.86 177.36 553.05C177.36 553.05 177.36 553.05 177.36 553.05C132.43 553.05 107.46 553.05 102.47 553.05C102.47 553.05 102.47 553.05 102.47 553.05C102.47 542.35 102.47 536.41 102.47 535.22C102.47 535.22 102.47 535.22 102.47 535.22C147.4 535.22 172.37 535.22 177.36 535.22Z" id="e2JLeCoMvX"></path><path d="M177.36 503.12C177.36 503.12 177.36 503.12 177.36 503.12C177.36 513.82 177.36 519.76 177.36 520.95C177.36 520.95 177.36 520.95 177.36 520.95C160.24 520.95 150.73 520.95 148.83 520.95C148.83 520.95 148.83 520.95 148.83 520.95C148.83 510.26 148.83 504.31 148.83 503.12C148.83 503.12 148.83 503.12 148.83 503.12C165.95 503.12 175.46 503.12 177.36 503.12Z" id="gnw2ILGH"></path><path d="M136.35 503.12C136.35 503.12 136.35 503.12 136.35 503.12C136.35 513.82 136.35 519.76 136.35 520.95C136.35 520.95 136.35 520.95 136.35 520.95C81.79 520.95 51.48 520.95 45.42 520.95C45.42 520.95 45.42 520.95 45.42 520.95C45.42 510.26 45.42 504.31 45.42 503.12C45.42 503.12 45.42 503.12 45.42 503.12C99.98 503.12 130.29 503.12 136.35 503.12Z" id="c2GK95I8bJ"></path><path d="M409.74 426.48L410.02 426.51L410.31 426.55L410.59 426.6L410.86 426.66L411.14 426.73L411.4 426.82L411.67 426.91L411.93 427.01L412.18 427.13L412.43 427.25L412.67 427.38L412.91 427.52L413.14 427.67L413.36 427.83L413.58 428L413.79 428.17L414 428.35L414.19 428.54L414.38 428.74L414.57 428.94L414.74 429.16L414.91 429.37L415.06 429.6L415.21 429.83L415.35 430.07L415.49 430.31L415.61 430.56L415.72 430.81L415.83 431.07L415.92 431.33L416 431.6L416.08 431.87L416.14 432.15L416.19 432.43L416.23 432.71L416.26 433L416.28 433.29L416.28 433.59L416.28 578.01L416.28 578.3L416.26 578.59L416.23 578.88L416.19 579.17L416.14 579.45L416.08 579.72L416 580L415.92 580.26L415.83 580.53L415.72 580.79L415.61 581.04L415.49 581.29L415.35 581.53L415.21 581.77L415.06 582L414.91 582.22L414.74 582.44L414.57 582.65L414.38 582.86L414.19 583.05L414 583.24L413.79 583.43L413.58 583.6L413.36 583.77L413.14 583.92L412.91 584.07L412.67 584.21L412.43 584.35L412.18 584.47L411.93 584.58L411.67 584.68L411.4 584.78L411.14 584.86L410.86 584.93L410.59 585L410.31 585.05L410.02 585.09L409.74 585.12L409.44 585.14L409.15 585.14L230.85 585.14L230.56 585.14L230.26 585.12L229.98 585.09L229.69 585.05L229.41 585L229.14 584.93L228.86 584.86L228.6 584.78L228.33 584.68L228.07 584.58L227.82 584.47L227.57 584.35L227.33 584.21L227.09 584.07L226.86 583.92L226.64 583.77L226.42 583.6L226.21 583.43L226 583.24L225.81 583.05L225.62 582.86L225.43 582.65L225.26 582.44L225.09 582.22L224.94 582L224.79 581.77L224.65 581.53L224.51 581.29L224.39 581.04L224.28 580.79L224.17 580.53L224.08 580.26L224 580L223.92 579.72L223.86 579.45L223.81 579.17L223.77 578.88L223.74 578.59L223.72 578.3L223.72 578.01L223.72 433.59L223.72 433.29L223.74 433L223.77 432.71L223.81 432.43L223.86 432.15L223.92 431.87L224 431.6L224.08 431.33L224.17 431.07L224.28 430.81L224.39 430.56L224.51 430.31L224.65 430.07L224.79 429.83L224.94 429.6L225.09 429.37L225.26 429.16L225.43 428.94L225.62 428.74L225.81 428.54L226 428.35L226.21 428.17L226.42 428L226.64 427.83L226.86 427.67L227.09 427.52L227.33 427.38L227.57 427.25L227.82 427.13L228.07 427.01L228.33 426.91L228.6 426.82L228.86 426.73L229.14 426.66L229.41 426.6L229.69 426.55L229.98 426.51L230.26 426.48L230.56 426.46L230.85 426.45L409.15 426.45L409.44 426.46L409.74 426.48ZM237.98 570.88L402.02 570.88L402.02 440.72L237.98 440.72L237.98 570.88Z" id="cF57e688"></path><path d="M295.04 467.46C295.04 467.46 295.04 467.46 295.04 467.46C295.04 478.16 295.04 484.1 295.04 485.29C295.04 485.29 295.04 485.29 295.04 485.29C270.43 485.29 256.76 485.29 254.03 485.29C254.03 485.29 254.03 485.29 254.03 485.29C254.03 474.6 254.03 468.65 254.03 467.46C254.03 467.46 254.03 467.46 254.03 467.46C278.63 467.46 292.3 467.46 295.04 467.46Z" id="c3v09tcXyo"></path><path d="M385.97 467.46C385.97 467.46 385.97 467.46 385.97 467.46C385.97 478.16 385.97 484.1 385.97 485.29C385.97 485.29 385.97 485.29 385.97 485.29C341.04 485.29 316.08 485.29 311.08 485.29C311.08 485.29 311.08 485.29 311.08 485.29C311.08 474.6 311.08 468.65 311.08 467.46C311.08 467.46 311.08 467.46 311.08 467.46C356.02 467.46 380.98 467.46 385.97 467.46Z" id="a8jqxlpEX"></path><path d="M295.04 535.22C295.04 535.22 295.04 535.22 295.04 535.22C295.04 545.92 295.04 551.86 295.04 553.05C295.04 553.05 295.04 553.05 295.04 553.05C270.43 553.05 256.76 553.05 254.03 553.05C254.03 553.05 254.03 553.05 254.03 553.05C254.03 542.35 254.03 536.41 254.03 535.22C254.03 535.22 254.03 535.22 254.03 535.22C278.63 535.22 292.3 535.22 295.04 535.22Z" id="a1awk4yzSU"></path><path d="M385.97 503.12C385.97 503.12 385.97 503.12 385.97 503.12C385.97 513.82 385.97 519.76 385.97 520.95C385.97 520.95 385.97 520.95 385.97 520.95C368.85 520.95 359.35 520.95 357.44 520.95C357.44 520.95 357.44 520.95 357.44 520.95C357.44 510.26 357.44 504.31 357.44 503.12C357.44 503.12 357.44 503.12 357.44 503.12C374.56 503.12 384.07 503.12 385.97 503.12Z" id="c2eMVcFsXA"></path><path d="M344.96 503.12C344.96 503.12 344.96 503.12 344.96 503.12C344.96 513.82 344.96 519.76 344.96 520.95C344.96 520.95 344.96 520.95 344.96 520.95C290.4 520.95 260.09 520.95 254.03 520.95C254.03 520.95 254.03 520.95 254.03 520.95C254.03 510.26 254.03 504.31 254.03 503.12C254.03 503.12 254.03 503.12 254.03 503.12C308.59 503.12 338.9 503.12 344.96 503.12Z" id="c41mIlajA"></path><path d="M616.57 426.48L616.85 426.51L617.14 426.55L617.42 426.6L617.69 426.66L617.97 426.73L618.23 426.82L618.5 426.91L618.76 427.01L619.01 427.13L619.26 427.25L619.5 427.38L619.74 427.52L619.97 427.67L620.19 427.83L620.41 428L620.62 428.17L620.83 428.35L621.02 428.54L621.21 428.74L621.4 428.94L621.57 429.16L621.74 429.37L621.89 429.6L622.04 429.83L622.18 430.07L622.32 430.31L622.44 430.56L622.55 430.81L622.66 431.07L622.75 431.33L622.83 431.6L622.91 431.87L622.97 432.15L623.02 432.43L623.06 432.71L623.09 433L623.11 433.29L623.11 433.59L623.11 578.01L623.11 578.3L623.09 578.59L623.06 578.88L623.02 579.17L622.97 579.45L622.91 579.72L622.83 580L622.75 580.26L622.66 580.53L622.55 580.79L622.44 581.04L622.32 581.29L622.18 581.53L622.04 581.77L621.89 582L621.74 582.22L621.57 582.44L621.4 582.65L621.21 582.86L621.02 583.05L620.83 583.24L620.62 583.43L620.41 583.6L620.19 583.77L619.97 583.92L619.74 584.07L619.5 584.21L619.26 584.35L619.01 584.47L618.76 584.58L618.5 584.68L618.23 584.78L617.97 584.86L617.69 584.93L617.42 585L617.14 585.05L616.85 585.09L616.57 585.12L616.27 585.14L615.98 585.14L437.68 585.14L437.39 585.14L437.09 585.12L436.81 585.09L436.52 585.05L436.24 585L435.97 584.93L435.69 584.86L435.42 584.78L435.16 584.68L434.9 584.58L434.65 584.47L434.4 584.35L434.16 584.21L433.92 584.07L433.69 583.92L433.47 583.77L433.25 583.6L433.04 583.43L432.83 583.24L432.64 583.05L432.45 582.86L432.26 582.65L432.09 582.44L431.92 582.22L431.77 582L431.62 581.77L431.47 581.53L431.34 581.29L431.22 581.04L431.11 580.79L431 580.53L430.91 580.26L430.83 580L430.75 579.72L430.69 579.45L430.64 579.17L430.6 578.88L430.57 578.59L430.55 578.3L430.55 578.01L430.55 433.59L430.55 433.29L430.57 433L430.6 432.71L430.64 432.43L430.69 432.15L430.75 431.87L430.83 431.6L430.91 431.33L431 431.07L431.11 430.81L431.22 430.56L431.34 430.31L431.47 430.07L431.62 429.83L431.77 429.6L431.92 429.37L432.09 429.16L432.26 428.94L432.45 428.74L432.64 428.54L432.83 428.35L433.04 428.17L433.25 428L433.47 427.83L433.69 427.67L433.92 427.52L434.16 427.38L434.4 427.25L434.65 427.13L434.9 427.01L435.16 426.91L435.42 426.82L435.69 426.73L435.97 426.66L436.24 426.6L436.52 426.55L436.81 426.51L437.09 426.48L437.39 426.46L437.68 426.45L615.98 426.45L616.27 426.46L616.57 426.48ZM444.81 570.88L608.85 570.88L608.85 440.72L444.81 440.72L444.81 570.88Z" id="a3qh8uMcL"></path><path d="M501.87 467.46C501.87 467.46 501.87 467.46 501.87 467.46C501.87 478.16 501.87 484.1 501.87 485.29C501.87 485.29 501.87 485.29 501.87 485.29C477.26 485.29 463.59 485.29 460.86 485.29C460.86 485.29 460.86 485.29 460.86 485.29C460.86 474.6 460.86 468.65 460.86 467.46C460.86 467.46 460.86 467.46 460.86 467.46C485.46 467.46 499.13 467.46 501.87 467.46Z" id="afM6525hY"></path><path d="M592.8 467.46C592.8 467.46 592.8 467.46 592.8 467.46C592.8 478.16 592.8 484.1 592.8 485.29C592.8 485.29 592.8 485.29 592.8 485.29C547.87 485.29 522.91 485.29 517.91 485.29C517.91 485.29 517.91 485.29 517.91 485.29C517.91 474.6 517.91 468.65 517.91 467.46C517.91 467.46 517.91 467.46 517.91 467.46C562.85 467.46 587.81 467.46 592.8 467.46Z" id="a6bMZc8sUP"></path><path d="M555.36 535.22C555.36 535.22 555.36 535.22 555.36 535.22C555.36 545.92 555.36 551.86 555.36 553.05C555.36 553.05 555.36 553.05 555.36 553.05C498.66 553.05 467.16 553.05 460.86 553.05C460.86 553.05 460.86 553.05 460.86 553.05C460.86 542.35 460.86 536.41 460.86 535.22C460.86 535.22 460.86 535.22 460.86 535.22C517.56 535.22 549.06 535.22 555.36 535.22Z" id="b1DTK8PaDP"></path><path d="M592.8 535.22C592.8 535.22 592.8 535.22 592.8 535.22C592.8 545.92 592.8 551.86 592.8 553.05C592.8 553.05 592.8 553.05 592.8 553.05C577.82 553.05 569.5 553.05 567.84 553.05C567.84 553.05 567.84 553.05 567.84 553.05C567.84 542.35 567.84 536.41 567.84 535.22C567.84 535.22 567.84 535.22 567.84 535.22C582.82 535.22 591.14 535.22 592.8 535.22Z" id="bXgE6kDev"></path><path d="M592.8 503.12C592.8 503.12 592.8 503.12 592.8 503.12C592.8 513.82 592.8 519.76 592.8 520.95C592.8 520.95 592.8 520.95 592.8 520.95C513.64 520.95 469.65 520.95 460.86 520.95C460.86 520.95 460.86 520.95 460.86 520.95C460.86 510.26 460.86 504.31 460.86 503.12C460.86 503.12 460.86 503.12 460.86 503.12C540.02 503.12 584.01 503.12 592.8 503.12Z" id="acLQQKQnY"></path></defs><g><g><g><use xlink:href="#a1AmAnHlFa" opacity="1" fill="#000000" fill-opacity="1"></use><g><use xlink:href="#a1AmAnHlFa" opacity="1" fill-opacity="0" stroke="#000000" stroke-width="1" stroke-opacity="0"></use></g></g><g><use xlink:href="#h3IpNSMYI" opacity="1" fill="#000000" fill-opacity="1"></use><g><use xlink:href="#h3IpNSMYI" opacity="1" fill-opacity="0" stroke="#000000" stroke-width="1" stroke-opacity="0"></use></g></g><g><use xlink:href="#g4bLRKT1sb" opacity="1" fill="#000000" fill-opacity="1"></use><g><use xlink:href="#g4bLRKT1sb" opacity="1" fill-opacity="0" stroke="#000000" stroke-width="1" stroke-opacity="0"></use></g></g><g><use xlink:href="#glcjG4X4B" opacity="1" fill="#000000" fill-opacity="1"></use><g><use xlink:href="#glcjG4X4B" opacity="1" fill-opacity="0" stroke="#000000" stroke-width="1" stroke-opacity="0"></use></g></g><g><use xlink:href="#f2qgw0JiDt" opacity="1" fill="#000000" fill-opacity="1"></use><g><use xlink:href="#f2qgw0JiDt" opacity="1" fill-opacity="0" stroke="#000000" stroke-width="1" stroke-opacity="0"></use></g></g><g><use xlink:href="#b1v8sUlWcG" opacity="1" fill="#000000" fill-opacity="1"></use><g><use xlink:href="#b1v8sUlWcG" opacity="1" fill-opacity="0" stroke="#000000" stroke-width="1" stroke-opacity="0"></use></g></g><g><use xlink:href="#g1xcdFb2s4" opacity="1" fill="#000000" fill-opacity="1"></use><g><use xlink:href="#g1xcdFb2s4" opacity="1" fill-opacity="0" stroke="#000000" stroke-width="1" stroke-opacity="0"></use></g></g><g><use xlink:href="#d4ga3YRbb" opacity="1" fill="#000000" fill-opacity="1"></use><g><use xlink:href="#d4ga3YRbb" opacity="1" fill-opacity="0" stroke="#000000" stroke-width="1" stroke-opacity="0"></use></g></g><g><use xlink:href="#e2JLeCoMvX" opacity="1" fill="#000000" fill-opacity="1"></use><g><use xlink:href="#e2JLeCoMvX" opacity="1" fill-opacity="0" stroke="#000000" stroke-width="1" stroke-opacity="0"></use></g></g><g><use xlink:href="#gnw2ILGH" opacity="1" fill="#000000" fill-opacity="1"></use><g><use xlink:href="#gnw2ILGH" opacity="1" fill-opacity="0" stroke="#000000" stroke-width="1" stroke-opacity="0"></use></g></g><g><use xlink:href="#c2GK95I8bJ" opacity="1" fill="#000000" fill-opacity="1"></use><g><use xlink:href="#c2GK95I8bJ" opacity="1" fill-opacity="0" stroke="#000000" stroke-width="1" stroke-opacity="0"></use></g></g><g><use xlink:href="#cF57e688" opacity="1" fill="#000000" fill-opacity="1"></use><g><use xlink:href="#cF57e688" opacity="1" fill-opacity="0" stroke="#000000" stroke-width="1" stroke-opacity="0"></use></g></g><g><use xlink:href="#c3v09tcXyo" opacity="1" fill="#000000" fill-opacity="1"></use><g><use xlink:href="#c3v09tcXyo" opacity="1" fill-opacity="0" stroke="#000000" stroke-width="1" stroke-opacity="0"></use></g></g><g><use xlink:href="#a8jqxlpEX" opacity="1" fill="#000000" fill-opacity="1"></use><g><use xlink:href="#a8jqxlpEX" opacity="1" fill-opacity="0" stroke="#000000" stroke-width="1" stroke-opacity="0"></use></g></g><g><use xlink:href="#a1awk4yzSU" opacity="1" fill="#000000" fill-opacity="1"></use><g><use xlink:href="#a1awk4yzSU" opacity="1" fill-opacity="0" stroke="#000000" stroke-width="1" stroke-opacity="0"></use></g></g><g><use xlink:href="#c2eMVcFsXA" opacity="1" fill="#000000" fill-opacity="1"></use><g><use xlink:href="#c2eMVcFsXA" opacity="1" fill-opacity="0" stroke="#000000" stroke-width="1" stroke-opacity="0"></use></g></g><g><use xlink:href="#c41mIlajA" opacity="1" fill="#000000" fill-opacity="1"></use><g><use xlink:href="#c41mIlajA" opacity="1" fill-opacity="0" stroke="#000000" stroke-width="1" stroke-opacity="0"></use></g></g><g><use xlink:href="#a3qh8uMcL" opacity="1" fill="#000000" fill-opacity="1"></use><g><use xlink:href="#a3qh8uMcL" opacity="1" fill-opacity="0" stroke="#000000" stroke-width="1" stroke-opacity="0"></use></g></g><g><use xlink:href="#afM6525hY" opacity="1" fill="#000000" fill-opacity="1"></use><g><use xlink:href="#afM6525hY" opacity="1" fill-opacity="0" stroke="#000000" stroke-width="1" stroke-opacity="0"></use></g></g><g><use xlink:href="#a6bMZc8sUP" opacity="1" fill="#000000" fill-opacity="1"></use><g><use xlink:href="#a6bMZc8sUP" opacity="1" fill-opacity="0" stroke="#000000" stroke-width="1" stroke-opacity="0"></use></g></g><g><use xlink:href="#b1DTK8PaDP" opacity="1" fill="#000000" fill-opacity="1"></use><g><use xlink:href="#b1DTK8PaDP" opacity="1" fill-opacity="0" stroke="#000000" stroke-width="1" stroke-opacity="0"></use></g></g><g><use xlink:href="#bXgE6kDev" opacity="1" fill="#000000" fill-opacity="1"></use><g><use xlink:href="#bXgE6kDev" opacity="1" fill-opacity="0" stroke="#000000" stroke-width="1" stroke-opacity="0"></use></g></g><g><use xlink:href="#acLQQKQnY" opacity="1" fill="#000000" fill-opacity="1"></use><g><use xlink:href="#acLQQKQnY" opacity="1" fill-opacity="0" stroke="#000000" stroke-width="1" stroke-opacity="0"></use></g></g></g></g></svg>