<?xml version="1.0" encoding="UTF-8" standalone="no"?>
<!DOCTYPE svg PUBLIC "-//W3C//DTD SVG 1.1//EN" "http://www.w3.org/Graphics/SVG/1.1/DTD/svg11.dtd">
<svg version="1.1" xmlns="http://www.w3.org/2000/svg" xmlns:xlink="http://www.w3.org/1999/xlink" preserveAspectRatio="xMidYMid meet" viewBox="0 0 640 640" width="640" height="640"><defs><path d="M593.08 94.63L594.59 94.79L596.08 95.01L597.56 95.28L599.01 95.62L600.44 96.02L601.85 96.47L603.24 96.98L604.6 97.53L605.93 98.15L607.23 98.81L608.51 99.52L609.75 100.29L610.97 101.1L612.15 101.95L613.29 102.85L614.4 103.8L615.48 104.78L616.52 105.81L617.51 106.88L618.47 107.99L619.39 109.13L620.26 110.31L621.1 111.53L621.88 112.78L622.62 114.06L623.31 115.37L623.96 116.72L624.55 118.09L625.1 119.49L625.59 120.91L626.03 122.37L626.41 123.84L626.74 125.34L627.01 126.86L627.22 128.4L627.38 129.95L627.47 131.53L627.5 133.12L627.47 134.71L627.38 136.29L627.22 137.85L627.01 139.39L626.74 140.91L626.41 142.4L626.03 143.88L625.59 145.33L625.1 146.76L624.55 148.16L623.96 149.53L623.31 150.87L622.62 152.18L621.88 153.47L621.1 154.72L620.26 155.93L619.39 157.11L618.47 158.26L617.51 159.36L616.52 160.43L615.48 161.46L614.4 162.45L613.29 163.39L612.15 164.29L610.97 165.15L609.75 165.96L608.51 166.72L607.23 167.43L605.93 168.1L604.6 168.71L603.24 169.27L601.85 169.77L600.44 170.23L599.01 170.62L597.56 170.96L596.08 171.24L594.59 171.46L593.08 171.62L591.55 171.71L590 171.74L50 171.74L48.45 171.71L46.92 171.62L45.41 171.46L43.92 171.24L42.44 170.96L40.99 170.62L39.56 170.23L38.15 169.77L36.76 169.27L35.4 168.71L34.07 168.1L32.77 167.43L31.49 166.72L30.25 165.96L29.03 165.15L27.85 164.29L26.71 163.39L25.6 162.45L24.52 161.46L23.48 160.43L22.49 159.36L21.53 158.26L20.61 157.11L19.74 155.93L18.9 154.72L18.12 153.47L17.38 152.18L16.69 150.87L16.04 149.53L15.45 148.16L14.9 146.76L14.41 145.33L13.97 143.88L13.59 142.4L13.26 140.91L12.99 139.39L12.78 137.85L12.62 136.29L12.53 134.71L12.5 133.12L12.53 131.53L12.62 129.95L12.78 128.4L12.99 126.86L13.26 125.34L13.59 123.84L13.97 122.37L14.41 120.91L14.9 119.49L15.45 118.09L16.04 116.72L16.69 115.37L17.38 114.06L18.12 112.78L18.9 111.53L19.74 110.31L20.61 109.13L21.53 107.99L22.49 106.88L23.48 105.81L24.52 104.78L25.6 103.8L26.71 102.85L27.85 101.95L29.03 101.1L30.25 100.29L31.49 99.52L32.77 98.81L34.07 98.15L35.4 97.53L36.76 96.98L38.15 96.47L39.56 96.02L40.99 95.62L42.44 95.28L43.92 95.01L45.41 94.79L46.92 94.63L48.45 94.53L50 94.5L590 94.5L591.55 94.53L593.08 94.63Z" id="enlXjdF1t"></path><path d="M593.08 281.51L594.59 281.66L596.08 281.88L597.56 282.16L599.01 282.5L600.44 282.9L601.85 283.35L603.24 283.85L604.6 284.41L605.93 285.03L607.23 285.69L608.51 286.4L609.75 287.16L610.97 287.97L612.15 288.83L613.29 289.73L614.4 290.68L615.48 291.66L616.52 292.69L617.51 293.76L618.47 294.87L619.39 296.01L620.26 297.19L621.1 298.41L621.88 299.66L622.62 300.94L623.31 302.25L623.96 303.59L624.55 304.97L625.1 306.37L625.59 307.79L626.03 309.24L626.41 310.72L626.74 312.22L627.01 313.74L627.22 315.27L627.38 316.83L627.47 318.41L627.5 320L627.47 321.59L627.38 323.17L627.22 324.73L627.01 326.26L626.74 327.78L626.41 329.28L626.03 330.76L625.59 332.21L625.1 333.63L624.55 335.03L623.96 336.41L623.31 337.75L622.62 339.06L621.88 340.34L621.1 341.59L620.26 342.81L619.39 343.99L618.47 345.13L617.51 346.24L616.52 347.31L615.48 348.34L614.4 349.32L613.29 350.27L612.15 351.17L610.97 352.03L609.75 352.84L608.51 353.6L607.23 354.31L605.93 354.97L604.6 355.59L603.24 356.15L601.85 356.65L600.44 357.1L599.01 357.5L597.56 357.84L596.08 358.12L594.59 358.34L593.08 358.49L591.55 358.59L590 358.62L50 358.62L48.45 358.59L46.92 358.49L45.41 358.34L43.92 358.12L42.44 357.84L40.99 357.5L39.56 357.1L38.15 356.65L36.76 356.15L35.4 355.59L34.07 354.97L32.77 354.31L31.49 353.6L30.25 352.84L29.03 352.03L27.85 351.17L26.71 350.27L25.6 349.32L24.52 348.34L23.48 347.31L22.49 346.24L21.53 345.13L20.61 343.99L19.74 342.81L18.9 341.59L18.12 340.34L17.38 339.06L16.69 337.75L16.04 336.41L15.45 335.03L14.9 333.63L14.41 332.21L13.97 330.76L13.59 329.28L13.26 327.78L12.99 326.26L12.78 324.73L12.62 323.17L12.53 321.59L12.5 320L12.53 318.41L12.62 316.83L12.78 315.27L12.99 313.74L13.26 312.22L13.59 310.72L13.97 309.24L14.41 307.79L14.9 306.37L15.45 304.97L16.04 303.59L16.69 302.25L17.38 300.94L18.12 299.66L18.9 298.41L19.74 297.19L20.61 296.01L21.53 294.87L22.49 293.76L23.48 292.69L24.52 291.66L25.6 290.68L26.71 289.73L27.85 288.83L29.03 287.97L30.25 287.16L31.49 286.4L32.77 285.69L34.07 285.03L35.4 284.41L36.76 283.85L38.15 283.35L39.56 282.9L40.99 282.5L42.44 282.16L43.92 281.88L45.41 281.66L46.92 281.51L48.45 281.41L50 281.38L590 281.38L591.55 281.41L593.08 281.51Z" id="c4g5MePkA5"></path><path d="M593.08 468.38L594.59 468.54L596.08 468.76L597.56 469.04L599.01 469.38L600.44 469.77L601.85 470.23L603.24 470.73L604.6 471.29L605.93 471.9L607.23 472.57L608.51 473.28L609.75 474.04L610.97 474.85L612.15 475.71L613.29 476.61L614.4 477.55L615.48 478.54L616.52 479.57L617.51 480.64L618.47 481.74L619.39 482.89L620.26 484.07L621.1 485.28L621.88 486.53L622.62 487.82L623.31 489.13L623.96 490.47L624.55 491.84L625.1 493.24L625.59 494.67L626.03 496.12L626.41 497.6L626.74 499.09L627.01 500.61L627.22 502.15L627.38 503.71L627.47 505.29L627.5 506.88L627.47 508.47L627.38 510.05L627.22 511.6L627.01 513.14L626.74 514.66L626.41 516.16L626.03 517.63L625.59 519.09L625.1 520.51L624.55 521.91L623.96 523.28L623.31 524.63L622.62 525.94L621.88 527.22L621.1 528.47L620.26 529.69L619.39 530.87L618.47 532.01L617.51 533.12L616.52 534.19L615.48 535.22L614.4 536.2L613.29 537.15L612.15 538.05L610.97 538.9L609.75 539.71L608.51 540.48L607.23 541.19L605.93 541.85L604.6 542.46L603.24 543.02L601.85 543.53L600.44 543.98L599.01 544.38L597.56 544.72L596.08 544.99L594.59 545.21L593.08 545.37L591.55 545.47L590 545.5L50 545.5L48.45 545.47L46.92 545.37L45.41 545.21L43.92 544.99L42.44 544.72L40.99 544.38L39.56 543.98L38.15 543.53L36.76 543.02L35.4 542.46L34.07 541.85L32.77 541.19L31.49 540.48L30.25 539.71L29.03 538.9L27.85 538.05L26.71 537.15L25.6 536.2L24.52 535.22L23.48 534.19L22.49 533.12L21.53 532.01L20.61 530.87L19.74 529.69L18.9 528.47L18.12 527.22L17.38 525.94L16.69 524.63L16.04 523.28L15.45 521.91L14.9 520.51L14.41 519.09L13.97 517.63L13.59 516.16L13.26 514.66L12.99 513.14L12.78 511.6L12.62 510.05L12.53 508.47L12.5 506.88L12.53 505.29L12.62 503.71L12.78 502.15L12.99 500.61L13.26 499.09L13.59 497.6L13.97 496.12L14.41 494.67L14.9 493.24L15.45 491.84L16.04 490.47L16.69 489.13L17.38 487.82L18.12 486.53L18.9 485.28L19.74 484.07L20.61 482.89L21.53 481.74L22.49 480.64L23.48 479.57L24.52 478.54L25.6 477.55L26.71 476.61L27.85 475.71L29.03 474.85L30.25 474.04L31.49 473.28L32.77 472.57L34.07 471.9L35.4 471.29L36.76 470.73L38.15 470.23L39.56 469.77L40.99 469.38L42.44 469.04L43.92 468.76L45.41 468.54L46.92 468.38L48.45 468.29L50 468.26L590 468.26L591.55 468.29L593.08 468.38Z" id="bHQdmXL6d"></path></defs><g><g><g><use xlink:href="#enlXjdF1t" opacity="1" fill="#000000" fill-opacity="1"></use><g><use xlink:href="#enlXjdF1t" opacity="1" fill-opacity="0" stroke="#000000" stroke-width="1" stroke-opacity="0"></use></g></g><g><use xlink:href="#c4g5MePkA5" opacity="1" fill="#000000" fill-opacity="1"></use><g><use xlink:href="#c4g5MePkA5" opacity="1" fill-opacity="0" stroke="#000000" stroke-width="1" stroke-opacity="0"></use></g></g><g><use xlink:href="#bHQdmXL6d" opacity="1" fill="#000000" fill-opacity="1"></use><g><use xlink:href="#bHQdmXL6d" opacity="1" fill-opacity="0" stroke="#000000" stroke-width="1" stroke-opacity="0"></use></g></g></g></g></svg>