<?xml version="1.0" encoding="UTF-8" standalone="no"?>
<!DOCTYPE svg PUBLIC "-//W3C//DTD SVG 1.1//EN" "http://www.w3.org/Graphics/SVG/1.1/DTD/svg11.dtd">
<svg version="1.1" xmlns="http://www.w3.org/2000/svg" xmlns:xlink="http://www.w3.org/1999/xlink" preserveAspectRatio="xMidYMid meet" viewBox="0 0 640 640" width="640" height="640"><defs><path d="M457.58 22.68L458.48 22.77L459.38 22.89L460.27 23.04L461.16 23.23L462.05 23.45L462.93 23.71L463.8 24.01L464.66 24.34L465.52 24.71L466.36 25.12L467.2 25.56L468.02 26.04L468.82 26.55L469.62 27.11L470.38 27.69L471.12 28.3L471.82 28.93L472.5 29.58L473.14 30.26L473.75 30.96L474.33 31.68L474.88 32.42L475.39 33.17L475.88 33.95L476.33 34.74L476.75 35.54L477.14 36.36L477.49 37.19L477.82 38.03L478.11 38.88L478.36 39.74L478.59 40.61L478.78 41.49L478.93 42.38L479.06 43.27L479.15 44.16L479.2 45.06L479.22 45.96L479.21 46.86L479.16 47.76L479.08 48.66L478.96 49.55L478.81 50.45L478.62 51.34L478.4 52.22L478.14 53.1L477.84 53.97L477.51 54.84L477.15 55.69L476.74 56.53L476.31 57.36L475.83 58.18L475.32 58.99L474.77 59.78L420.76 134.02L420.75 134.02L420.75 134.03L420.74 134.03L420.74 134.04L420.73 134.04L420.73 134.04L420.73 134.04L420.72 134.05L420.71 134.05L420.7 134.06L420.7 134.06L420.69 134.06L420.68 134.07L420.68 134.07L420.66 134.08L420.65 134.08L420.65 134.08L420.64 134.09L420.64 134.09L420.63 134.09L420.63 134.09L420.62 134.1L420.62 134.1L420.61 134.11L420.61 134.11L420.6 134.11L420.6 134.12L420.6 134.12L420.6 134.13L420.59 134.13L420.59 134.14L420.58 134.14L420.58 134.15L420.58 134.16L420.57 134.16L420.57 134.17L420.57 134.18L420.56 134.18L420.56 134.19L420.56 134.2L420.55 134.21L420.55 134.21L420.55 134.22L420.54 134.23L420.54 134.24L420.54 134.25L420.53 134.26L420.53 134.26L420.53 134.28L420.51 134.33L420.5 134.34L420.5 134.35L420.49 134.37L420.49 134.39L420.48 134.4L420.48 134.41L420.47 134.42L420.47 134.43L420.47 134.44L420.46 134.45L420.46 134.45L346.57 231.15L440.2 471.22L440.42 471.83L440.63 472.44L440.83 473.05L441 473.66L441.16 474.28L441.3 474.9L441.42 475.52L441.53 476.14L441.62 476.77L441.69 477.39L441.75 478.02L441.78 478.64L441.81 479.27L441.81 479.89L441.8 480.51L441.77 481.14L441.73 481.76L441.66 482.38L441.59 482.99L441.49 483.61L441.38 484.22L441.25 484.83L441.11 485.43L440.95 486.04L440.77 486.63L440.58 487.23L440.38 487.81L440.15 488.4L439.91 488.98L439.66 489.55L439.38 490.12L439.1 490.68L438.79 491.23L438.48 491.78L438.14 492.32L437.79 492.85L437.43 493.37L437.05 493.89L436.65 494.4L436.24 494.89L337.86 610.78L337.53 611.17L337.18 611.55L336.83 611.92L336.47 612.29L336.1 612.64L335.73 612.98L335.35 613.32L334.96 613.65L334.57 613.97L334.17 614.28L333.76 614.58L333.35 614.87L332.93 615.15L332.5 615.42L332.07 615.68L331.64 615.94L331.2 616.18L330.75 616.42L330.3 616.64L329.85 616.85L329.39 617.06L328.93 617.25L328.46 617.44L327.99 617.62L327.51 617.78L327.03 617.94L326.55 618.08L326.06 618.21L325.57 618.34L325.08 618.45L324.58 618.56L324.09 618.65L323.59 618.73L323.08 618.8L322.58 618.86L322.07 618.91L321.56 618.95L321.05 618.98L320.54 618.99L320.02 619L319.51 618.99L319 618.98L318.49 618.95L317.98 618.91L317.47 618.86L316.97 618.8L316.46 618.73L315.96 618.65L315.47 618.55L314.97 618.45L314.48 618.33L313.99 618.21L313.51 618.07L313.02 617.93L312.54 617.77L312.07 617.61L311.6 617.43L311.13 617.25L310.67 617.05L310.21 616.84L309.76 616.63L309.31 616.4L308.86 616.17L308.42 615.93L307.99 615.67L307.56 615.41L307.14 615.14L306.72 614.85L306.31 614.56L305.9 614.26L305.5 613.96L305.11 613.64L304.72 613.31L304.34 612.98L303.97 612.63L303.6 612.28L303.24 611.92L302.89 611.55L302.55 611.17L302.21 610.78L203.78 494.89L203.37 494.4L202.98 493.89L202.6 493.37L202.24 492.85L201.89 492.32L201.55 491.78L201.24 491.23L200.94 490.68L200.65 490.12L200.38 489.55L200.12 488.98L199.89 488.4L199.66 487.81L199.46 487.23L199.26 486.63L199.09 486.04L198.93 485.43L198.79 484.83L198.66 484.22L198.55 483.61L198.45 482.99L198.38 482.38L198.31 481.76L198.27 481.14L198.24 480.51L198.23 479.89L198.23 479.27L198.25 478.64L198.29 478.02L198.34 477.39L198.42 476.77L198.5 476.14L198.61 475.52L198.73 474.9L198.87 474.28L199.03 473.66L199.2 473.05L199.39 472.44L199.6 471.83L199.82 471.22L293.45 231.12L219.59 134.43L219.58 134.42L219.58 134.41L219.57 134.41L219.57 134.4L219.56 134.39L219.56 134.39L219.55 134.38L219.55 134.37L219.54 134.37L219.54 134.36L219.53 134.35L219.53 134.34L219.52 134.33L219.52 134.33L219.52 134.32L219.51 134.31L219.51 134.3L219.51 134.29L219.5 134.28L219.49 134.27L219.49 134.25L219.48 134.23L219.47 134.21L219.46 134.2L219.46 134.19L219.46 134.18L219.45 134.18L219.45 134.17L219.45 134.16L219.44 134.16L219.44 134.15L219.43 134.14L219.43 134.14L219.43 134.13L219.42 134.13L219.42 134.12L219.41 134.12L219.41 134.11L219.4 134.11L219.39 134.1L219.39 134.1L219.38 134.09L219.37 134.09L219.35 134.08L219.34 134.07L219.33 134.07L219.33 134.06L219.33 134.06L219.33 134.06L219.32 134.06L219.31 134.05L219.31 134.04L219.3 134.04L219.3 134.04L219.3 134.04L219.3 134.03L219.3 134.03L219.29 134.02L219.29 134.02L165.25 59.78L164.7 58.99L164.19 58.18L163.71 57.36L163.27 56.53L162.86 55.69L162.5 54.84L162.16 53.97L161.87 53.1L161.61 52.22L161.38 51.34L161.2 50.45L161.04 49.55L160.92 48.66L160.84 47.76L160.79 46.86L160.78 45.96L160.8 45.06L160.85 44.16L160.94 43.27L161.06 42.38L161.22 41.49L161.41 40.61L161.64 39.74L161.89 38.88L162.18 38.03L162.51 37.19L162.86 36.36L163.25 35.54L163.67 34.74L164.13 33.95L164.61 33.17L165.13 32.42L165.68 31.68L166.26 30.96L166.87 30.26L167.52 29.58L168.19 28.93L168.9 28.3L169.63 27.69L170.4 27.11L171.2 26.56L172 26.04L172.82 25.56L173.66 25.12L174.5 24.72L175.35 24.35L176.22 24.02L177.09 23.72L177.97 23.46L178.86 23.24L179.75 23.05L180.64 22.89L181.54 22.77L182.44 22.69L183.34 22.64L184.24 22.63L185.14 22.65L186.03 22.7L186.93 22.79L187.82 22.91L188.7 23.07L189.58 23.26L190.45 23.48L191.31 23.74L192.16 24.03L193 24.35L193.83 24.71L194.65 25.09L195.45 25.52L196.24 25.97L197.01 26.46L197.77 26.97L198.51 27.52L199.22 28.11L199.92 28.72L200.6 29.37L201.25 30.04L201.89 30.75L202.49 31.49L203.08 32.26L250.09 96.87L389.95 96.87L436.97 32.26L437.55 31.49L438.16 30.75L438.79 30.05L439.44 29.37L440.12 28.73L440.81 28.11L441.53 27.53L442.27 26.98L443.02 26.46L443.79 25.98L444.58 25.52L445.38 25.1L446.2 24.71L447.02 24.36L447.86 24.03L448.72 23.74L449.58 23.48L450.45 23.26L451.32 23.07L452.21 22.91L453.09 22.79L453.99 22.7L454.88 22.64L455.78 22.62L456.68 22.64L457.58 22.68ZM320.02 559.51L391.61 475.26L320.02 291.75L248.47 475.26L320.02 559.51ZM320.02 188.87L354.59 143.62L285.48 143.62L320.02 188.87Z" id="hbrXUZ2o2"></path></defs><g><g><g><use xlink:href="#hbrXUZ2o2" opacity="1" fill="#000000" fill-opacity="1"></use><g><use xlink:href="#hbrXUZ2o2" opacity="1" fill-opacity="0" stroke="#000000" stroke-width="1" stroke-opacity="0"></use></g></g></g></g></svg>