<?xml version="1.0" encoding="UTF-8" standalone="no"?>
<!DOCTYPE svg PUBLIC "-//W3C//DTD SVG 1.1//EN" "http://www.w3.org/Graphics/SVG/1.1/DTD/svg11.dtd">
<svg version="1.1" xmlns="http://www.w3.org/2000/svg" xmlns:xlink="http://www.w3.org/1999/xlink" preserveAspectRatio="xMidYMid meet" viewBox="0 0 640 640" width="640" height="640"><defs><path d="M340.58 339.91L298.49 339.91L286.33 312.79L286.33 291.27L352.73 291.27L352.73 312.79L340.58 339.91ZM299.42 310.91L306.91 326.81L331.22 326.81L338.71 310.91L338.71 306.24L299.42 306.24L299.42 310.91Z" id="b2gdZqFPj"></path><path d="M493.96 204.29L493.96 438.11L146.04 438.11L146.04 204.29L253.6 204.29L253.6 170.62L386.4 170.62L386.4 204.29L493.96 204.29ZM160.07 282.86L190.93 306.24L191.28 306.45L191.63 306.65L191.98 306.85L192.34 307.05L192.69 307.24L193.04 307.43L193.39 307.62L193.75 307.8L194.1 307.98L194.45 308.15L194.81 308.32L195.17 308.49L195.52 308.65L195.88 308.8L196.24 308.95L196.6 309.1L196.97 309.24L197.33 309.37L197.7 309.5L198.06 309.63L198.43 309.75L198.8 309.86L199.18 309.97L199.55 310.08L199.93 310.17L200.31 310.27L200.69 310.35L201.07 310.43L201.46 310.51L201.85 310.58L202.24 310.64L202.63 310.7L203.03 310.75L203.43 310.79L203.83 310.83L204.24 310.86L204.65 310.88L205.06 310.9L205.48 310.91L205.9 310.91L274.17 310.91L274.17 324.94L205.9 324.94L205.26 324.94L204.63 324.92L204 324.9L203.37 324.86L202.74 324.81L202.11 324.76L201.49 324.69L200.86 324.61L200.24 324.53L199.61 324.43L198.99 324.33L198.37 324.21L197.75 324.09L197.14 323.95L196.53 323.81L195.91 323.66L195.31 323.5L194.7 323.32L194.1 323.14L193.5 322.96L192.91 322.76L192.32 322.55L191.73 322.34L191.15 322.12L190.57 321.88L190 321.64L189.43 321.4L188.86 321.14L188.3 320.88L187.75 320.6L187.2 320.32L186.65 320.04L186.11 319.74L185.58 319.44L185.05 319.13L184.53 318.81L184.02 318.48L183.51 318.15L183.01 317.81L182.51 317.46L160.07 300.63L160.07 423.15L479.93 423.15L479.93 300.63L457.49 317.46L456.99 317.81L456.49 318.15L455.98 318.48L455.47 318.81L454.95 319.13L454.42 319.44L453.89 319.74L453.35 320.04L452.8 320.32L452.25 320.6L451.7 320.88L451.14 321.14L450.57 321.4L450 321.64L449.43 321.88L448.85 322.12L448.27 322.34L447.68 322.55L447.09 322.76L446.5 322.96L445.9 323.14L445.3 323.32L444.69 323.5L444.09 323.66L443.47 323.81L442.86 323.95L442.25 324.09L441.63 324.21L441.01 324.33L440.39 324.43L439.76 324.53L439.14 324.61L438.51 324.69L437.89 324.76L437.26 324.81L436.63 324.86L436 324.9L435.37 324.92L434.74 324.94L434.1 324.94L365.83 324.94L365.83 310.91L434.1 310.91L434.52 310.91L434.95 310.9L435.37 310.88L435.79 310.86L436.2 310.83L436.62 310.79L437.04 310.75L437.46 310.7L437.87 310.64L438.28 310.58L438.69 310.51L439.1 310.43L439.51 310.35L439.92 310.27L440.32 310.17L440.72 310.08L441.12 309.97L441.51 309.86L441.9 309.75L442.29 309.63L442.67 309.5L443.05 309.37L443.43 309.24L443.8 309.1L444.17 308.95L444.53 308.8L444.89 308.65L445.25 308.49L445.6 308.32L445.94 308.15L446.28 307.98L446.61 307.8L446.94 307.62L447.26 307.43L447.58 307.24L447.89 307.05L448.2 306.85L448.49 306.65L448.78 306.45L449.07 306.24L479.93 282.86L479.93 217.39L160.07 217.39L160.07 282.86ZM267.62 204.29L373.31 204.29L373.31 184.65L267.62 184.65L267.62 204.29Z" id="gCAQuqwKg"></path><path d="M326.55 62.13C326.55 62.13 326.55 62.13 326.55 62.13C326.55 70.55 326.55 75.22 326.55 76.16C326.55 76.16 326.55 76.16 326.55 76.16C318.13 76.16 313.45 76.16 312.52 76.16C312.52 76.16 312.52 76.16 312.52 76.16C312.52 67.74 312.52 63.07 312.52 62.13C312.52 62.13 312.52 62.13 312.52 62.13C320.94 62.13 325.61 62.13 326.55 62.13Z" id="c1U78hXPfQ"></path><path d="M326.55 29.4C326.55 29.4 326.55 29.4 326.55 29.4C326.55 37.81 326.55 42.49 326.55 43.43C326.55 43.43 326.55 43.43 326.55 43.43C318.13 43.43 313.45 43.43 312.52 43.43C312.52 43.43 312.52 43.43 312.52 43.43C312.52 35.01 312.52 30.33 312.52 29.4C312.52 29.4 312.52 29.4 312.52 29.4C320.94 29.4 325.61 29.4 326.55 29.4Z" id="a3lQfuGjNb"></path><path d="M186.19 77.16C186.19 77.16 186.19 77.16 186.19 77.16C178.9 81.37 174.85 83.71 174.04 84.17C174.04 84.17 174.04 84.17 174.04 84.17C169.83 76.88 167.5 72.83 167.03 72.02C167.03 72.02 167.03 72.02 167.03 72.02C174.32 67.82 178.37 65.48 179.18 65.01C179.18 65.01 179.18 65.01 179.18 65.01C183.39 72.3 185.73 76.35 186.19 77.16Z" id="iVrd7RUW4"></path><path d="M190.45 113.2C190.45 113.2 190.45 113.2 190.45 113.2C186.24 105.91 183.9 101.86 183.43 101.05C183.43 101.05 183.43 101.05 183.43 101.05C190.72 96.84 194.77 94.5 195.58 94.04C195.58 94.04 195.58 94.04 195.58 94.04C199.79 101.33 202.13 105.38 202.6 106.19C202.6 106.19 202.6 106.19 202.6 106.19C195.31 110.4 191.26 112.73 190.45 113.2Z" id="aVfg0gSWP"></path><path d="M90.95 198.67C90.95 198.67 90.95 198.67 90.95 198.67C95.16 191.38 97.5 187.33 97.97 186.52C97.97 186.52 97.97 186.52 97.97 186.52C105.26 190.73 109.31 193.06 110.12 193.53C110.12 193.53 110.12 193.53 110.12 193.53C105.91 200.82 103.57 204.87 103.1 205.68C103.1 205.68 103.1 205.68 103.1 205.68C95.81 201.47 91.76 199.13 90.95 198.67Z" id="cgu2ryr4U"></path><path d="M62.11 182.56C62.11 182.56 62.11 182.56 62.11 182.56C66.32 175.27 68.66 171.22 69.13 170.41C69.13 170.41 69.13 170.41 69.13 170.41C76.42 174.62 80.47 176.96 81.28 177.42C81.28 177.42 81.28 177.42 81.28 177.42C77.07 184.71 74.73 188.76 74.26 189.57C74.26 189.57 74.26 189.57 74.26 189.57C66.97 185.36 62.92 183.03 62.11 182.56Z" id="dDoKsWE94"></path><path d="M73.09 316.53C73.09 316.53 73.09 316.53 73.09 316.53C73.09 324.94 73.09 329.62 73.09 330.56C73.09 330.56 73.09 330.56 73.09 330.56C64.67 330.56 59.99 330.56 59.06 330.56C59.06 330.56 59.06 330.56 59.06 330.56C59.06 322.14 59.06 317.46 59.06 316.53C59.06 316.53 59.06 316.53 59.06 316.53C67.48 316.53 72.15 316.53 73.09 316.53Z" id="b3QiR0iQZy"></path><path d="M40.35 316.53C40.35 316.53 40.35 316.53 40.35 316.53C40.35 324.94 40.35 329.62 40.35 330.56C40.35 330.56 40.35 330.56 40.35 330.56C31.93 330.56 27.26 330.56 26.32 330.56C26.32 330.56 26.32 330.56 26.32 330.56C26.32 322.14 26.32 317.46 26.32 316.53C26.32 316.53 26.32 316.53 26.32 316.53C34.74 316.53 39.42 316.53 40.35 316.53Z" id="bPr2V9TU1"></path><path d="M90.51 447.88C90.51 447.88 90.51 447.88 90.51 447.88C97.8 443.67 101.85 441.33 102.66 440.86C102.66 440.86 102.66 440.86 102.66 440.86C106.87 448.15 109.21 452.2 109.67 453.01C109.67 453.01 109.67 453.01 109.67 453.01C102.39 457.22 98.34 459.56 97.53 460.03C97.53 460.03 97.53 460.03 97.53 460.03C93.32 452.74 90.98 448.69 90.51 447.88Z" id="aqdS68BY"></path><path d="M62.42 463.76C62.42 463.76 62.42 463.76 62.42 463.76C69.71 459.55 73.76 457.21 74.57 456.74C74.57 456.74 74.57 456.74 74.57 456.74C78.78 464.03 81.12 468.08 81.58 468.89C81.58 468.89 81.58 468.89 81.58 468.89C74.29 473.1 70.24 475.44 69.43 475.91C69.43 475.91 69.43 475.91 69.43 475.91C65.22 468.62 62.89 464.57 62.42 463.76Z" id="c9rhTMowpr"></path><path d="M183.45 545.09C183.45 545.09 183.45 545.09 183.45 545.09C187.66 537.8 190 533.75 190.47 532.94C190.47 532.94 190.47 532.94 190.47 532.94C197.76 537.15 201.81 539.49 202.62 539.96C202.62 539.96 202.62 539.96 202.62 539.96C198.41 547.24 196.07 551.29 195.6 552.1C195.6 552.1 195.6 552.1 195.6 552.1C188.31 547.89 184.26 545.56 183.45 545.09Z" id="bgaGG3gAM"></path><path d="M167.34 573.93C167.34 573.93 167.34 573.93 167.34 573.93C171.55 566.64 173.89 562.59 174.36 561.78C174.36 561.78 174.36 561.78 174.36 561.78C181.65 565.99 185.7 568.33 186.51 568.79C186.51 568.79 186.51 568.79 186.51 568.79C182.3 576.08 179.96 580.13 179.49 580.94C179.49 580.94 179.49 580.94 179.49 580.94C172.2 576.73 168.15 574.4 167.34 573.93Z" id="c30MTBvkxu"></path><path d="M326.55 602.72C326.55 602.72 326.55 602.72 326.55 602.72C326.55 611.14 326.55 615.81 326.55 616.75C326.55 616.75 326.55 616.75 326.55 616.75C318.13 616.75 313.45 616.75 312.52 616.75C312.52 616.75 312.52 616.75 312.52 616.75C312.52 608.33 312.52 603.66 312.52 602.72C312.52 602.72 312.52 602.72 312.52 602.72C320.94 602.72 325.61 602.72 326.55 602.72Z" id="b2eCAvg1ZH"></path><path d="M326.55 569.99C326.55 569.99 326.55 569.99 326.55 569.99C326.55 578.4 326.55 583.08 326.55 584.02C326.55 584.02 326.55 584.02 326.55 584.02C318.13 584.02 313.45 584.02 312.52 584.02C312.52 584.02 312.52 584.02 312.52 584.02C312.52 575.6 312.52 570.92 312.52 569.99C312.52 569.99 312.52 569.99 312.52 569.99C320.94 569.99 325.61 569.99 326.55 569.99Z" id="a1N6PArDlf"></path><path d="M453.7 568.5C453.7 568.5 453.7 568.5 453.7 568.5C460.99 564.29 465.04 561.95 465.85 561.49C465.85 561.49 465.85 561.49 465.85 561.49C470.06 568.78 472.4 572.83 472.87 573.64C472.87 573.64 472.87 573.64 472.87 573.64C465.58 577.85 461.53 580.18 460.72 580.65C460.72 580.65 460.72 580.65 460.72 580.65C456.51 573.36 454.17 569.31 453.7 568.5Z" id="fn439Ufe4"></path><path d="M449.49 533.83C449.49 533.83 449.49 533.83 449.49 533.83C453.7 541.12 456.03 545.17 456.5 545.98C456.5 545.98 456.5 545.98 456.5 545.98C449.21 550.18 445.16 552.52 444.35 552.99C444.35 552.99 444.35 552.99 444.35 552.99C440.14 545.7 437.81 541.65 437.34 540.84C437.34 540.84 437.34 540.84 437.34 540.84C444.63 536.63 448.68 534.29 449.49 533.83Z" id="b3qb1lEty2"></path><path d="M529.87 452.64C529.87 452.64 529.87 452.64 529.87 452.64C534.08 445.35 536.42 441.3 536.88 440.49C536.88 440.49 536.88 440.49 536.88 440.49C544.17 444.69 548.22 447.03 549.03 447.5C549.03 447.5 549.03 447.5 549.03 447.5C544.82 454.79 542.49 458.84 542.02 459.65C542.02 459.65 542.02 459.65 542.02 459.65C534.73 455.44 530.68 453.1 529.87 452.64Z" id="b43VMgjsJ1"></path><path d="M558.72 468.7C558.72 468.7 558.72 468.7 558.72 468.7C562.93 461.41 565.27 457.36 565.74 456.55C565.74 456.55 565.74 456.55 565.74 456.55C573.03 460.76 577.08 463.1 577.89 463.57C577.89 463.57 577.89 463.57 577.89 463.57C573.68 470.86 571.34 474.91 570.87 475.72C570.87 475.72 570.87 475.72 570.87 475.72C563.58 471.51 559.53 469.17 558.72 468.7Z" id="b2woxEsg3z"></path><path d="M613.68 316.53C613.68 316.53 613.68 316.53 613.68 316.53C613.68 324.94 613.68 329.62 613.68 330.56C613.68 330.56 613.68 330.56 613.68 330.56C605.26 330.56 600.58 330.56 599.65 330.56C599.65 330.56 599.65 330.56 599.65 330.56C599.65 322.14 599.65 317.46 599.65 316.53C599.65 316.53 599.65 316.53 599.65 316.53C608.07 316.53 612.74 316.53 613.68 316.53Z" id="b2P4O4pTll"></path><path d="M580.94 316.53C580.94 316.53 580.94 316.53 580.94 316.53C580.94 324.94 580.94 329.62 580.94 330.56C580.94 330.56 580.94 330.56 580.94 330.56C572.52 330.56 567.85 330.56 566.91 330.56C566.91 330.56 566.91 330.56 566.91 330.56C566.91 322.14 566.91 317.46 566.91 316.53C566.91 316.53 566.91 316.53 566.91 316.53C575.33 316.53 580.01 316.53 580.94 316.53Z" id="bJzWSwPCm"></path><path d="M530.31 193.11C530.31 193.11 530.31 193.11 530.31 193.11C537.6 188.9 541.65 186.56 542.46 186.09C542.46 186.09 542.46 186.09 542.46 186.09C546.67 193.38 549.01 197.43 549.48 198.24C549.48 198.24 549.48 198.24 549.48 198.24C542.19 202.45 538.14 204.79 537.33 205.26C537.33 205.26 537.33 205.26 537.33 205.26C533.12 197.97 530.78 193.92 530.31 193.11Z" id="b2bMwyoNjx"></path><path d="M578.09 182.27C578.09 182.27 578.09 182.27 578.09 182.27C570.8 186.48 566.75 188.82 565.94 189.29C565.94 189.29 565.94 189.29 565.94 189.29C561.73 182 559.39 177.95 558.92 177.14C558.92 177.14 558.92 177.14 558.92 177.14C566.21 172.93 570.26 170.59 571.07 170.12C571.07 170.12 571.07 170.12 571.07 170.12C575.28 177.41 577.62 181.46 578.09 182.27Z" id="g325MS9LQ9"></path><path d="M456.53 100.17C456.53 100.17 456.53 100.17 456.53 100.17C452.32 107.46 449.98 111.51 449.51 112.32C449.51 112.32 449.51 112.32 449.51 112.32C442.22 108.11 438.17 105.77 437.36 105.3C437.36 105.3 437.36 105.3 437.36 105.3C441.57 98.01 443.91 93.96 444.38 93.15C444.38 93.15 444.38 93.15 444.38 93.15C451.67 97.36 455.72 99.7 456.53 100.17Z" id="b1YvfWb19w"></path><path d="M473.15 72.3C473.15 72.3 473.15 72.3 473.15 72.3C468.94 79.59 466.6 83.64 466.14 84.45C466.14 84.45 466.14 84.45 466.14 84.45C458.85 80.25 454.8 77.91 453.99 77.44C453.99 77.44 453.99 77.44 453.99 77.44C458.2 70.15 460.53 66.1 461 65.29C461 65.29 461 65.29 461 65.29C468.29 69.5 472.34 71.84 473.15 72.3Z" id="cfjGPVJRI"></path></defs><g><g><g><use xlink:href="#b2gdZqFPj" opacity="1" fill="#000000" fill-opacity="1"></use><g><use xlink:href="#b2gdZqFPj" opacity="1" fill-opacity="0" stroke="#000000" stroke-width="1" stroke-opacity="0"></use></g></g><g><use xlink:href="#gCAQuqwKg" opacity="1" fill="#000000" fill-opacity="1"></use><g><use xlink:href="#gCAQuqwKg" opacity="1" fill-opacity="0" stroke="#000000" stroke-width="1" stroke-opacity="0"></use></g></g><g><use xlink:href="#c1U78hXPfQ" opacity="1" fill="#000000" fill-opacity="1"></use><g><use xlink:href="#c1U78hXPfQ" opacity="1" fill-opacity="0" stroke="#000000" stroke-width="1" stroke-opacity="0"></use></g></g><g><use xlink:href="#a3lQfuGjNb" opacity="1" fill="#000000" fill-opacity="1"></use><g><use xlink:href="#a3lQfuGjNb" opacity="1" fill-opacity="0" stroke="#000000" stroke-width="1" stroke-opacity="0"></use></g></g><g><use xlink:href="#iVrd7RUW4" opacity="1" fill="#000000" fill-opacity="1"></use><g><use xlink:href="#iVrd7RUW4" opacity="1" fill-opacity="0" stroke="#000000" stroke-width="1" stroke-opacity="0"></use></g></g><g><use xlink:href="#aVfg0gSWP" opacity="1" fill="#000000" fill-opacity="1"></use><g><use xlink:href="#aVfg0gSWP" opacity="1" fill-opacity="0" stroke="#000000" stroke-width="1" stroke-opacity="0"></use></g></g><g><use xlink:href="#cgu2ryr4U" opacity="1" fill="#000000" fill-opacity="1"></use><g><use xlink:href="#cgu2ryr4U" opacity="1" fill-opacity="0" stroke="#000000" stroke-width="1" stroke-opacity="0"></use></g></g><g><use xlink:href="#dDoKsWE94" opacity="1" fill="#000000" fill-opacity="1"></use><g><use xlink:href="#dDoKsWE94" opacity="1" fill-opacity="0" stroke="#000000" stroke-width="1" stroke-opacity="0"></use></g></g><g><use xlink:href="#b3QiR0iQZy" opacity="1" fill="#000000" fill-opacity="1"></use><g><use xlink:href="#b3QiR0iQZy" opacity="1" fill-opacity="0" stroke="#000000" stroke-width="1" stroke-opacity="0"></use></g></g><g><use xlink:href="#bPr2V9TU1" opacity="1" fill="#000000" fill-opacity="1"></use><g><use xlink:href="#bPr2V9TU1" opacity="1" fill-opacity="0" stroke="#000000" stroke-width="1" stroke-opacity="0"></use></g></g><g><use xlink:href="#aqdS68BY" opacity="1" fill="#000000" fill-opacity="1"></use><g><use xlink:href="#aqdS68BY" opacity="1" fill-opacity="0" stroke="#000000" stroke-width="1" stroke-opacity="0"></use></g></g><g><use xlink:href="#c9rhTMowpr" opacity="1" fill="#000000" fill-opacity="1"></use><g><use xlink:href="#c9rhTMowpr" opacity="1" fill-opacity="0" stroke="#000000" stroke-width="1" stroke-opacity="0"></use></g></g><g><use xlink:href="#bgaGG3gAM" opacity="1" fill="#000000" fill-opacity="1"></use><g><use xlink:href="#bgaGG3gAM" opacity="1" fill-opacity="0" stroke="#000000" stroke-width="1" stroke-opacity="0"></use></g></g><g><use xlink:href="#c30MTBvkxu" opacity="1" fill="#000000" fill-opacity="1"></use><g><use xlink:href="#c30MTBvkxu" opacity="1" fill-opacity="0" stroke="#000000" stroke-width="1" stroke-opacity="0"></use></g></g><g><use xlink:href="#b2eCAvg1ZH" opacity="1" fill="#000000" fill-opacity="1"></use><g><use xlink:href="#b2eCAvg1ZH" opacity="1" fill-opacity="0" stroke="#000000" stroke-width="1" stroke-opacity="0"></use></g></g><g><use xlink:href="#a1N6PArDlf" opacity="1" fill="#000000" fill-opacity="1"></use><g><use xlink:href="#a1N6PArDlf" opacity="1" fill-opacity="0" stroke="#000000" stroke-width="1" stroke-opacity="0"></use></g></g><g><use xlink:href="#fn439Ufe4" opacity="1" fill="#000000" fill-opacity="1"></use><g><use xlink:href="#fn439Ufe4" opacity="1" fill-opacity="0" stroke="#000000" stroke-width="1" stroke-opacity="0"></use></g></g><g><use xlink:href="#b3qb1lEty2" opacity="1" fill="#000000" fill-opacity="1"></use><g><use xlink:href="#b3qb1lEty2" opacity="1" fill-opacity="0" stroke="#000000" stroke-width="1" stroke-opacity="0"></use></g></g><g><use xlink:href="#b43VMgjsJ1" opacity="1" fill="#000000" fill-opacity="1"></use><g><use xlink:href="#b43VMgjsJ1" opacity="1" fill-opacity="0" stroke="#000000" stroke-width="1" stroke-opacity="0"></use></g></g><g><use xlink:href="#b2woxEsg3z" opacity="1" fill="#000000" fill-opacity="1"></use><g><use xlink:href="#b2woxEsg3z" opacity="1" fill-opacity="0" stroke="#000000" stroke-width="1" stroke-opacity="0"></use></g></g><g><use xlink:href="#b2P4O4pTll" opacity="1" fill="#000000" fill-opacity="1"></use><g><use xlink:href="#b2P4O4pTll" opacity="1" fill-opacity="0" stroke="#000000" stroke-width="1" stroke-opacity="0"></use></g></g><g><use xlink:href="#bJzWSwPCm" opacity="1" fill="#000000" fill-opacity="1"></use><g><use xlink:href="#bJzWSwPCm" opacity="1" fill-opacity="0" stroke="#000000" stroke-width="1" stroke-opacity="0"></use></g></g><g><use xlink:href="#b2bMwyoNjx" opacity="1" fill="#000000" fill-opacity="1"></use><g><use xlink:href="#b2bMwyoNjx" opacity="1" fill-opacity="0" stroke="#000000" stroke-width="1" stroke-opacity="0"></use></g></g><g><use xlink:href="#g325MS9LQ9" opacity="1" fill="#000000" fill-opacity="1"></use><g><use xlink:href="#g325MS9LQ9" opacity="1" fill-opacity="0" stroke="#000000" stroke-width="1" stroke-opacity="0"></use></g></g><g><use xlink:href="#b1YvfWb19w" opacity="1" fill="#000000" fill-opacity="1"></use><g><use xlink:href="#b1YvfWb19w" opacity="1" fill-opacity="0" stroke="#000000" stroke-width="1" stroke-opacity="0"></use></g></g><g><use xlink:href="#cfjGPVJRI" opacity="1" fill="#000000" fill-opacity="1"></use><g><use xlink:href="#cfjGPVJRI" opacity="1" fill-opacity="0" stroke="#000000" stroke-width="1" stroke-opacity="0"></use></g></g></g></g></svg>