<?xml version="1.0" encoding="UTF-8" standalone="no"?>
<!DOCTYPE svg PUBLIC "-//W3C//DTD SVG 1.1//EN" "http://www.w3.org/Graphics/SVG/1.1/DTD/svg11.dtd">
<svg version="1.1" xmlns="http://www.w3.org/2000/svg" xmlns:xlink="http://www.w3.org/1999/xlink" preserveAspectRatio="xMidYMid meet" viewBox="0 0 640 640" width="640" height="640"><defs><path d="M240.01 194.88L241.13 196.56L242.43 196.16L243.7 195.81L244.96 195.5L246.2 195.23L247.43 195.01L248.64 194.82L249.84 194.67L251.02 194.56L252.18 194.48L253.33 194.44L254.46 194.43L255.58 194.45L256.68 194.5L257.77 194.58L258.85 194.69L259.91 194.82L260.95 194.98L261.98 195.15L263 195.36L264 195.58L264.99 195.82L265.97 196.07L266.93 196.35L267.88 196.64L268.82 196.94L269.74 197.25L270.65 197.58L271.55 197.91L272.44 198.25L273.31 198.6L274.18 198.96L275.03 199.31L275.86 199.67L276.69 200.03L277.51 200.4L278.31 200.76L279.1 201.11L279.89 201.46L280.66 201.81L281.42 202.15L281.63 202.24L281.84 202.32L282.05 202.41L282.26 202.5L282.47 202.59L282.68 202.69L282.88 202.78L283.09 202.88L283.3 202.97L283.51 203.07L283.71 203.17L283.92 203.26L284.13 203.36L284.33 203.46L284.54 203.56L284.74 203.65L284.94 203.75L285.14 203.85L285.35 203.94L285.54 204.04L285.74 204.13L285.94 204.23L286.14 204.32L286.33 204.41L286.53 204.49L286.72 204.58L286.91 204.67L287.1 204.75L287.29 204.83L287.48 204.9L287.66 204.98L287.85 205.05L288.03 205.12L288.21 205.19L288.39 205.25L288.56 205.31L288.74 205.36L288.91 205.42L289.08 205.46L289.25 205.51L289.88 205.72L290.49 205.95L291.1 206.19L291.7 206.45L292.29 206.71L292.87 206.99L293.44 207.28L294.01 207.58L294.56 207.89L295.1 208.21L295.63 208.54L296.16 208.89L296.67 209.24L297.17 209.61L297.66 209.98L298.14 210.37L298.61 210.77L299.07 211.17L299.52 211.59L299.95 212.01L300.38 212.45L300.79 212.89L301.19 213.34L301.58 213.81L301.96 214.28L302.32 214.76L302.67 215.25L303.01 215.74L303.34 216.25L303.65 216.76L303.95 217.28L304.24 217.81L304.51 218.34L304.77 218.89L305.02 219.44L305.25 220L305.47 220.56L305.67 221.13L305.86 221.71L306.04 222.29L306.04 222.33L306.04 222.37L306.05 222.41L306.05 222.45L306.06 222.48L306.07 222.51L306.08 222.54L306.1 222.57L306.11 222.6L306.12 222.63L306.14 222.65L306.16 222.68L306.18 222.7L306.2 222.72L306.21 222.75L306.23 222.77L306.25 222.79L306.28 222.81L306.3 222.83L306.34 222.87L306.36 222.9L306.38 222.92L306.4 222.94L306.42 222.96L306.44 222.98L306.46 223.01L306.48 223.03L306.49 223.05L306.51 223.08L306.52 223.11L306.54 223.14L306.55 223.16L306.56 223.19L306.57 223.23L306.58 223.26L306.59 223.3L306.59 223.33L306.6 223.37L306.6 223.41L307.31 223.05L308.04 222.72L308.76 222.42L309.5 222.15L310.23 221.91L310.98 221.7L311.72 221.52L312.47 221.37L313.23 221.25L313.98 221.16L314.74 221.09L315.51 221.06L316.27 221.05L317.03 221.07L317.8 221.11L318.57 221.18L319.33 221.28L320.1 221.41L320.87 221.56L321.63 221.73L322.4 221.94L323.16 222.16L323.93 222.41L324.69 222.69L325.44 222.99L326.2 223.31L326.95 223.65L327.7 224.02L328.44 224.42L329.18 224.83L329.91 225.26L330.64 225.72L331.37 226.2L332.09 226.7L332.8 227.22L333.5 227.76L334.2 228.32L334.89 228.91L335.58 229.51L336.25 230.13L336.46 230.3L336.67 230.47L336.87 230.65L337.07 230.83L337.27 231.02L337.47 231.2L337.67 231.4L337.86 231.59L338.05 231.79L338.24 231.99L338.43 232.19L338.62 232.4L338.8 232.61L338.98 232.82L339.16 233.03L339.34 233.24L339.52 233.46L339.69 233.68L339.86 233.89L340.03 234.11L340.2 234.33L340.36 234.56L340.52 234.78L340.68 235L340.84 235.22L341 235.45L341.15 235.67L341.3 235.9L341.45 236.12L341.6 236.34L341.75 236.57L341.89 236.79L342.03 237.01L342.17 237.23L342.31 237.45L342.45 237.67L342.58 237.88L342.71 238.1L342.84 238.31L342.97 238.52L418.5 160.75L418.76 160.46L419.03 160.19L419.3 159.93L419.59 159.69L419.88 159.46L420.18 159.25L420.49 159.05L420.81 158.87L421.13 158.7L421.46 158.54L421.8 158.4L422.14 158.28L422.49 158.17L422.84 158.07L423.19 157.99L423.55 157.93L423.91 157.87L424.27 157.84L424.64 157.82L425.01 157.81L425.37 157.82L425.74 157.84L426.11 157.87L426.48 157.93L426.84 157.99L427.21 158.07L427.57 158.17L427.94 158.28L428.3 158.4L428.65 158.54L429 158.7L429.35 158.87L429.69 159.05L430.03 159.25L430.37 159.46L430.69 159.69L431.01 159.93L431.33 160.19L431.63 160.46L431.93 160.75L490.12 217.82L446.48 262.58L434.73 251.39L415.7 270.97L427.45 282.16L298.76 414.21L287.01 403.02L267.99 422.6L279.18 433.79L239.45 474.64L178.47 415.33L178.3 415.16L178.15 414.98L178 414.81L177.86 414.63L177.73 414.44L177.61 414.25L177.5 414.06L177.39 413.87L177.3 413.67L177.21 413.48L177.13 413.27L177.06 413.07L176.99 412.87L176.94 412.66L176.89 412.46L176.86 412.25L176.83 412.04L176.8 411.83L176.79 411.62L176.79 411.41L176.79 411.2L176.8 410.99L176.83 410.78L176.86 410.57L176.89 410.37L176.94 410.16L176.99 409.96L177.06 409.75L177.13 409.55L177.21 409.35L177.3 409.15L177.39 408.95L177.5 408.76L177.61 408.57L177.73 408.38L177.86 408.2L178 408.02L178.15 407.84L178.3 407.67L178.47 407.5L255.68 327.48L255.47 327.36L255.26 327.23L255.05 327.1L254.84 326.96L254.63 326.83L254.42 326.69L254.21 326.55L254 326.41L253.79 326.27L253.58 326.12L253.37 325.97L253.16 325.82L252.95 325.67L252.74 325.52L252.53 325.36L252.32 325.2L252.11 325.04L251.9 324.88L251.69 324.71L251.48 324.55L251.27 324.38L251.06 324.21L250.85 324.03L250.64 323.86L250.43 323.68L250.23 323.5L250.02 323.32L249.81 323.14L249.6 322.95L249.39 322.76L249.18 322.57L248.97 322.38L248.76 322.19L248.55 321.99L248.34 321.79L248.13 321.59L247.92 321.39L247.71 321.18L247.5 320.98L247.29 320.77L246.79 320.31L246.31 319.84L245.84 319.37L245.39 318.89L244.95 318.41L244.53 317.93L244.12 317.44L243.72 316.95L243.34 316.46L242.97 315.96L242.61 315.46L242.27 314.96L241.94 314.45L241.63 313.94L241.33 313.43L241.04 312.92L240.76 312.4L240.5 311.88L240.25 311.36L240.01 310.84L239.79 310.31L239.58 309.78L239.38 309.26L239.19 308.72L239.02 308.19L238.85 307.66L238.7 307.12L238.56 306.58L238.43 306.04L238.32 305.5L238.21 304.96L238.12 304.42L238.04 303.88L237.97 303.34L237.91 302.79L237.86 302.25L237.82 301.7L237.8 301.16L237.78 300.61L237.78 300.07L237.73 300.03L237.7 299.99L237.66 299.95L237.62 299.92L237.59 299.88L237.56 299.85L237.53 299.82L237.5 299.79L237.47 299.77L237.44 299.74L237.42 299.72L237.39 299.7L237.37 299.68L237.35 299.66L237.32 299.64L237.3 299.63L237.28 299.61L237.26 299.6L237.24 299.59L237.22 299.58L237.2 299.57L237.17 299.56L237.15 299.55L237.13 299.54L237.11 299.54L237.09 299.53L237.06 299.53L237.04 299.52L237.01 299.52L236.99 299.52L236.96 299.51L236.93 299.51L236.91 299.51L236.87 299.51L236.84 299.51L236.81 299.51L236.77 299.51L236.74 299.51L236.7 299.51L236.66 299.51L236.15 299.29L235.65 299.08L235.16 298.85L234.66 298.62L234.17 298.38L233.67 298.13L233.19 297.88L232.7 297.62L232.22 297.36L231.73 297.09L231.26 296.81L230.78 296.52L230.31 296.23L229.84 295.93L229.37 295.62L228.9 295.31L228.44 294.99L227.98 294.66L227.53 294.32L227.07 293.98L226.63 293.63L226.18 293.28L225.74 292.91L225.3 292.54L224.86 292.16L224.43 291.77L224 291.38L223.57 290.97L223.15 290.56L222.73 290.14L222.31 289.72L221.9 289.28L221.5 288.84L221.09 288.39L220.69 287.93L220.3 287.47L219.9 286.99L219.52 286.51L219.13 286.02L218.75 285.52L218.42 285.14L218.09 284.76L217.76 284.37L217.44 283.98L217.12 283.58L216.81 283.18L216.5 282.78L216.2 282.37L215.89 281.96L215.6 281.54L215.3 281.12L215.01 280.7L214.72 280.27L214.44 279.84L214.16 279.41L213.88 278.98L213.61 278.54L213.34 278.09L213.07 277.65L212.81 277.2L212.55 276.74L212.29 276.29L212.03 275.83L211.78 275.37L211.53 274.9L211.29 274.44L211.05 273.96L210.81 273.49L210.57 273.02L210.33 272.54L210.1 272.06L209.87 271.57L209.64 271.09L209.42 270.6L209.2 270.11L208.98 269.61L208.76 269.12L208.55 268.62L208.33 268.12L208.12 267.61L207.87 266.99L207.63 266.36L207.38 265.75L207.15 265.13L206.92 264.52L206.69 263.92L206.46 263.32L206.25 262.73L206.03 262.15L205.82 261.56L205.62 260.99L205.42 260.42L205.22 259.86L205.03 259.31L204.85 258.76L204.67 258.22L204.49 257.69L204.32 257.17L204.15 256.65L203.99 256.14L203.84 255.65L203.69 255.15L203.55 254.67L203.41 254.2L203.27 253.74L203.15 253.28L203.02 252.84L202.91 252.4L202.8 251.98L202.69 251.56L202.59 251.16L202.5 250.77L202.41 250.38L202.33 250.01L202.25 249.65L202.18 249.31L202.12 248.97L202.06 248.64L202.01 248.33L201.97 248.03L191.34 245.23L191.29 245.23L191.26 245.23L191.22 245.22L191.18 245.22L191.15 245.21L191.12 245.2L191.09 245.19L191.06 245.18L191.03 245.16L191 245.15L190.98 245.13L190.95 245.11L190.93 245.1L190.91 245.08L190.88 245.06L190.86 245.04L190.84 245.02L190.82 245L190.8 244.98L190.75 244.93L190.73 244.91L190.71 244.89L190.69 244.87L190.67 244.85L190.65 244.83L190.62 244.81L190.6 244.8L190.57 244.78L190.55 244.76L190.52 244.75L190.49 244.73L190.46 244.72L190.43 244.71L190.4 244.7L190.37 244.69L190.33 244.68L190.3 244.68L190.26 244.68L190.22 244.67L176.23 258.66L40.26 122.7L40.26 58.35L119.16 58.35L247.85 187.04L240.01 194.88ZM312.69 237.33L312.19 237.4L312.23 237.78L312.27 238.15L312.31 238.52L312.34 238.89L312.38 239.26L312.41 239.63L312.43 239.99L312.46 240.35L312.48 240.71L312.51 241.06L312.53 241.42L312.54 241.77L312.56 242.11L312.57 242.46L312.59 242.8L312.59 243.14L312.6 243.48L312.61 243.81L312.61 244.14L312.61 244.46L312.61 244.79L312.61 245.11L312.6 245.43L312.59 245.74L312.59 246.05L312.57 246.36L312.56 246.66L312.54 246.96L312.53 247.26L312.51 247.55L312.48 247.84L312.46 248.13L312.43 248.41L312.41 248.69L312.38 248.96L312.34 249.23L312.31 249.5L312.27 249.76L312.23 250.02L312.19 250.27L312.14 250.73L312.09 251.18L312.02 251.63L311.94 252.07L311.85 252.5L311.76 252.93L311.65 253.35L311.53 253.76L311.4 254.17L311.27 254.57L311.12 254.97L310.96 255.36L310.8 255.74L310.62 256.12L310.44 256.49L310.25 256.85L310.05 257.21L309.84 257.56L309.62 257.9L309.39 258.24L309.16 258.58L308.92 258.9L308.66 259.22L308.41 259.54L308.14 259.84L307.86 260.14L307.58 260.44L307.29 260.73L306.99 261.01L306.68 261.29L306.37 261.55L306.05 261.82L305.72 262.08L305.39 262.33L305.05 262.57L304.7 262.81L304.34 263.04L303.98 263.27L303.61 263.49L303.24 263.7L303.11 263.74L302.99 263.78L302.86 263.82L302.74 263.87L302.61 263.91L302.49 263.95L302.36 263.99L302.24 264.03L302.11 264.08L301.99 264.12L301.87 264.16L301.74 264.2L301.62 264.24L301.5 264.29L301.38 264.33L301.26 264.37L301.14 264.41L301.02 264.45L300.91 264.5L300.79 264.54L300.68 264.58L300.56 264.62L300.45 264.66L300.34 264.71L300.23 264.75L300.12 264.79L300.01 264.83L299.91 264.87L299.8 264.92L299.7 264.96L299.6 265L299.5 265.04L299.4 265.08L299.3 265.12L299.21 265.17L299.12 265.21L299.02 265.25L298.94 265.29L298.85 265.33L298.76 265.38L298.68 265.71L298.58 266.04L298.48 266.36L298.38 266.69L298.27 267L298.15 267.32L298.02 267.62L297.9 267.93L297.76 268.23L297.62 268.52L297.47 268.82L297.32 269.1L297.16 269.39L297 269.67L296.83 269.94L296.65 270.21L296.47 270.48L296.28 270.74L296.09 271L295.9 271.25L295.69 271.5L295.49 271.75L295.27 271.99L295.06 272.23L294.83 272.46L294.61 272.69L294.38 272.91L294.14 273.13L293.9 273.35L293.65 273.56L293.4 273.77L293.14 273.97L292.88 274.17L292.62 274.37L292.35 274.56L292.07 274.74L291.79 274.93L291.51 275.1L291.22 275.28L290.93 275.45L290.8 275.49L290.68 275.53L290.55 275.57L290.43 275.62L290.3 275.66L290.18 275.7L290.05 275.74L289.93 275.78L289.8 275.83L289.68 275.87L289.56 275.91L289.43 275.95L289.31 275.99L289.19 276.04L289.07 276.08L288.95 276.12L288.83 276.16L288.72 276.2L288.6 276.25L288.48 276.29L288.37 276.33L288.25 276.37L288.14 276.41L288.03 276.46L287.92 276.5L287.81 276.54L287.7 276.58L287.6 276.62L287.49 276.67L287.39 276.71L287.29 276.75L287.19 276.79L287.09 276.83L286.99 276.87L286.9 276.92L286.81 276.96L286.72 277L286.63 277.04L286.54 277.08L286.45 277.13L286.33 277.5L286.19 277.88L286.05 278.25L285.9 278.62L285.74 278.99L285.58 279.35L285.42 279.71L285.24 280.07L285.06 280.42L284.87 280.77L284.68 281.12L284.48 281.46L284.27 281.8L284.05 282.14L283.83 282.47L283.6 282.79L283.36 283.12L283.12 283.43L282.87 283.74L282.61 284.05L282.34 284.35L282.07 284.65L281.79 284.94L281.5 285.22L281.2 285.5L280.9 285.78L280.59 286.04L280.27 286.3L279.94 286.56L279.61 286.8L279.27 287.05L278.92 287.28L278.56 287.5L278.19 287.72L277.82 287.94L277.44 288.14L277.04 288.34L276.65 288.52L276.24 288.7L275.82 288.88L275.65 288.96L275.48 289.04L275.31 289.12L275.14 289.2L274.96 289.27L274.78 289.34L274.61 289.41L274.43 289.48L274.25 289.55L274.07 289.61L273.88 289.67L273.7 289.73L273.52 289.79L273.34 289.85L273.16 289.9L272.98 289.95L272.8 290L272.61 290.05L272.44 290.09L272.26 290.14L272.08 290.18L271.9 290.22L271.73 290.25L271.55 290.29L271.38 290.32L271.21 290.35L271.04 290.38L270.88 290.4L270.71 290.43L270.55 290.45L270.39 290.47L270.24 290.49L270.08 290.5L269.93 290.52L269.79 290.53L269.64 290.54L269.5 290.55L269.37 290.55L269.24 290.55L269.11 290.56L268.9 290.89L268.68 291.22L268.45 291.55L268.22 291.88L267.98 292.2L267.74 292.53L267.49 292.84L267.24 293.16L266.98 293.47L266.71 293.78L266.44 294.09L266.17 294.39L265.89 294.68L265.6 294.98L265.31 295.27L265.02 295.55L264.72 295.83L264.41 296.11L264.11 296.38L263.79 296.64L263.48 296.9L263.16 297.15L262.83 297.4L262.5 297.65L262.17 297.88L261.83 298.11L261.49 298.34L261.15 298.56L260.8 298.77L260.45 298.97L260.1 299.17L259.74 299.36L259.39 299.55L259.02 299.73L258.66 299.9L258.29 300.06L257.92 300.21L257.55 300.36L257.18 300.5L256.8 300.63L256.72 300.67L256.63 300.71L256.55 300.75L256.46 300.79L256.38 300.84L256.3 300.88L256.21 300.92L256.13 300.96L256.04 301L255.96 301.04L255.88 301.08L255.79 301.12L255.71 301.15L255.62 301.19L255.54 301.23L255.46 301.26L255.37 301.3L255.29 301.33L255.2 301.36L255.12 301.4L255.04 301.43L254.95 301.46L254.87 301.49L254.79 301.51L254.7 301.54L254.62 301.56L254.53 301.59L254.45 301.61L254.37 301.63L254.28 301.65L254.2 301.67L254.11 301.68L254.03 301.7L253.95 301.71L253.86 301.72L253.78 301.73L253.69 301.74L253.61 301.74L253.53 301.74L253.44 301.75L253.53 302L253.63 302.26L253.74 302.53L253.87 302.81L254 303.09L254.15 303.38L254.3 303.68L254.47 303.98L254.65 304.29L254.84 304.61L255.04 304.94L255.26 305.27L255.48 305.61L255.71 305.96L255.96 306.31L256.22 306.67L256.49 307.04L256.77 307.41L257.06 307.79L257.36 308.18L257.67 308.58L258 308.98L258.33 309.39L258.68 309.8L259.04 310.23L259.41 310.66L259.79 311.09L260.18 311.54L260.58 311.99L261 312.45L261.42 312.91L261.86 313.38L262.31 313.86L262.76 314.35L263.23 314.84L263.72 315.34L264.21 315.85L264.71 316.36L265.23 316.88L265.75 317.41L332.33 249.15L331.79 248.61L331.25 248.07L330.72 247.54L330.18 247.02L329.66 246.51L329.13 246.01L328.61 245.51L328.09 245.03L327.58 244.55L327.06 244.09L326.55 243.64L326.05 243.19L325.54 242.76L325.04 242.35L324.54 241.94L324.04 241.55L323.54 241.17L323.04 240.81L322.55 240.46L322.05 240.13L321.56 239.81L321.07 239.51L320.58 239.23L320.09 238.96L319.6 238.71L319.11 238.48L318.62 238.26L318.13 238.07L317.64 237.9L317.15 237.74L316.66 237.61L316.17 237.49L315.67 237.4L315.18 237.33L314.69 237.29L314.19 237.26L313.69 237.26L313.2 237.28L312.69 237.33Z" id="c5d5qxndRn"></path><path d="M500.75 227.89L457.11 272.65L472.22 287.2L453.19 306.78L438.08 292.23L309.39 424.28L324.5 438.83L305.48 458.41L290.37 444.42L250.64 485.27C308.39 541.33 340.47 572.48 346.88 578.71C350.8 582.63 356.95 582.63 360.87 578.71C384.54 554.43 573.88 360.16 597.55 335.88C600.91 331.4 600.91 325.25 596.99 321.33C584.16 308.87 552.08 277.72 500.75 227.89Z" id="a23E8JZTLD"></path></defs><g><g><g><use xlink:href="#c5d5qxndRn" opacity="1" fill="#000000" fill-opacity="1"></use><g><use xlink:href="#c5d5qxndRn" opacity="1" fill-opacity="0" stroke="#000000" stroke-width="1" stroke-opacity="0"></use></g></g><g><use xlink:href="#a23E8JZTLD" opacity="1" fill="#000000" fill-opacity="1"></use><g><use xlink:href="#a23E8JZTLD" opacity="1" fill-opacity="0" stroke="#000000" stroke-width="1" stroke-opacity="0"></use></g></g></g></g></svg>